<?xml version="1.0" encoding="utf-8"?>
<!-- Generator: Adobe Illustrator 27.5.0, SVG Export Plug-In . SVG Version: 6.00 Build 0)  -->
<svg version="1.1" xmlns="http://www.w3.org/2000/svg" xmlns:xlink="http://www.w3.org/1999/xlink" x="0px" y="0px"
	 viewBox="0 0 750 500" style="enable-background:new 0 0 750 500;" xml:space="preserve">
<g id="BACKGROUND">
	<rect style="fill:#34d399;" width="750" height="500"/>
</g>
<g id="OBJECTS">
	<g>
		<defs>
			<rect id="SVGID_1_" width="750" height="500"/>
		</defs>
		<clipPath id="SVGID_00000126300237438406945140000002247550538449451928_">
			<use xlink:href="#SVGID_1_"  style="overflow:visible;"/>
		</clipPath>
		<g style="clip-path:url(#SVGID_00000126300237438406945140000002247550538449451928_);">
			<path style="fill:#F5EFDD;" d="M549.002-6.666c0,0,1,92.334,49,110c48,17.667,150.667,13.667,156,6.334
				c5.333-7.334-1.667-113.334-1.667-113.334L549.002-6.666z"/>
			<path style="fill:#F5EFDD;" d="M294.337-5.999c0,0-22.333,97.333-93,116s-110.666-5-146.333,33.667s-63.333,48-63.333,48
				L-9.996-5.666L294.337-5.999z"/>
			<path style="fill:#F5EFDD;" d="M-15.333,371.001c0,0,137-14.666,193.333,18s137.333,114.332,187.667,119.666
				S-12,510.001-12,510.001L-15.333,371.001z"/>
			<path style="fill:#F5EFDD;" d="M752.667,294.335c0,0-15.667,77.999-94,98.666s-122.999,58.002-142.333,119.334l237.333-4.334
				L752.667,294.335z"/>
		</g>
	</g>
	<g>
		<defs>
			<rect id="SVGID_00000178190807732969511570000012397683676204405382_" width="750" height="500"/>
		</defs>
		<clipPath id="SVGID_00000173873170172210618590000017474123201474275217_">
			<use xlink:href="#SVGID_00000178190807732969511570000012397683676204405382_"  style="overflow:visible;"/>
		</clipPath>
		<g style="clip-path:url(#SVGID_00000173873170172210618590000017474123201474275217_);">
			<path style="fill:#5CD7C2;" d="M298.335,508c0,0-18.667-36,18.667-80c37.333-44,72.748-28.5,72.748-28.5s36.75,13,69.5-1
				S536,382,559,396.5s48.25,28.75,34.75,107.75L298.335,508z"/>
			<path style="fill:#E38338;" d="M752.75,360c0,0-45,9-70.25-32.5s-2.5-75.75-0.25-97.25s-15.5-66-13-89s16.5-67.5,55-75.75
				c0,0,18.5-4.25,28.75,6.25S752.75,360,752.75,360z"/>
			<path style="fill:#5499BA;" d="M208-4.25c0,0-20.5,45.75,16.75,84s70.5,33.25,110.5,18.75s64-15.5,105.5,1.25s65,22.25,94.5,3.25
				c29.24-18.833,47.919-67.877,32.42-106.719c-0.138-0.344-0.277-0.688-0.42-1.031L208-4.25z"/>
			<path style="fill:#EBDD3F;" d="M-3.25,149.75c0,0,33.75-25,63-3.25S84.5,215,87.5,219.25s-0.75,17.5,26,30.75s77.5,62,26,123.5
				S-3.75,417-5.25,409.25L-3.25,149.75z"/>
		</g>
	</g>
	<g>
		<defs>
			<rect id="SVGID_00000095308276240230039080000011013736670782477982_" width="750" height="500"/>
		</defs>
		<clipPath id="SVGID_00000098189259724602943120000009997697431796442242_">
			<use xlink:href="#SVGID_00000095308276240230039080000011013736670782477982_"  style="overflow:visible;"/>
		</clipPath>
		<g style="clip-path:url(#SVGID_00000098189259724602943120000009997697431796442242_);">
			<g>
				<path style="fill:#EBDD3F;" d="M36.661,503.838c-0.847-2.768-1.324-5.618-1.513-8.51c-0.201-2.889-0.104-5.814,0.306-8.714
					c0.77-5.81,2.911-11.503,6.186-16.494c1.623-2.509,3.574-4.795,5.688-6.903c1.087-1.02,2.176-2.044,3.344-2.968
					c0.567-0.487,1.158-0.939,1.762-1.373l0.898-0.662l0.45-0.332l0.534-0.348l3.592-2.273c0.563-0.391,1.298-0.722,1.961-1.078
					l2.039-1.048c2.745-1.33,5.599-2.363,8.629-3.066c0.738-0.233,1.523-0.273,2.289-0.402c0.771-0.097,1.542-0.212,2.314-0.287
					l2.321-0.047l1.162-0.017c0.385,0.004,0.762,0.05,1.143,0.073l2.282,0.18c0.758,0.066,1.482,0.21,2.225,0.313
					c1.496,0.2,2.914,0.504,4.343,0.791c5.687,1.18,10.99,2.61,16.417,3.341c1.357,0.143,2.71,0.316,4.064,0.494
					c1.357,0.137,2.722,0.195,4.084,0.299c1.361,0.136,2.733,0.071,4.103,0.095l2.057,0.026l0.515,0.01l0.461-0.017l1.062-0.044
					c1.461-0.032,2.717-0.189,4.056-0.293c1.35-0.184,2.71-0.327,4.064-0.569c2.715-0.417,5.421-1.023,8.123-1.698
					c5.404-1.359,10.773-3.103,16.148-4.905l8.098-2.686c2.714-0.878,5.458-1.683,8.221-2.437c2.768-0.745,5.574-1.382,8.418-1.848
					c2.851-0.434,5.736-0.709,8.638-0.735c2.905-0.052,5.816,0.301,8.673,0.873c2.87,0.542,5.661,1.485,8.327,2.675
					c0.66,0.31,1.337,0.594,1.985,0.93l1.929,1.039l0.483,0.26c0.099,0.058,0.12,0.054,0.283,0.162l0.224,0.143l0.897,0.57
					c0.599,0.399,1.195,0.719,1.795,1.184c2.471,1.752,4.624,3.756,6.608,5.997c3.905,4.529,6.532,10.147,7.832,15.982
					c1.289,5.851,1.403,11.877,0.714,17.738c-0.336,2.936-0.862,5.843-1.575,8.704c-0.362,1.429-0.745,2.853-1.191,4.265
					c-0.454,1.434-0.894,2.771-1.507,4.285l-0.745,1.838l-2.118,0.037c-15.229,0.27-30.457,0.511-45.686,0.702l-22.844,0.089
					l-22.844-0.172l-22.845-0.379c-7.615-0.194-15.23-0.32-22.845-0.58c-7.615-0.214-15.231-0.496-22.846-0.797l-11.423-0.539
					c-3.808-0.164-7.616-0.371-11.424-0.609l-0.265-0.017L36.661,503.838z M37.312,503.382c3.702-0.25,7.405-0.474,11.107-0.653
					l11.421-0.602c7.614-0.343,15.228-0.666,22.841-0.922c7.614-0.301,15.228-0.47,22.842-0.705l22.842-0.504l22.843-0.297
					l22.844-0.036c15.229,0.108,30.459,0.266,45.689,0.452l-2.862,1.875c0.492-1.096,0.998-2.432,1.441-3.686
					c0.455-1.275,0.854-2.576,1.235-3.881c0.735-2.618,1.362-5.271,1.816-7.946c0.885-5.349,1.148-10.804,0.35-16.109
					c-0.821-5.286-2.795-10.388-6.038-14.683c-1.627-2.121-3.548-4.106-5.626-5.742c-0.495-0.437-1.132-0.828-1.691-1.244
					l-0.867-0.615l-0.217-0.154c0.02,0.004-0.121-0.075-0.173-0.108l-0.44-0.267l-1.764-1.066c-0.599-0.336-1.224-0.619-1.834-0.933
					c-4.913-2.46-10.406-3.684-15.932-3.697c-5.544-0.081-11.058,1.091-16.435,2.62c-5.361,1.643-10.626,3.661-15.864,5.827
					c-5.256,2.125-10.521,4.33-15.995,6.168c-5.465,1.83-11.148,3.349-17.067,3.923c-5.853,0.513-11.739,0.513-17.582-0.228
					l-4.339-0.679l-4.276-0.841c-2.816-0.597-5.58-1.317-8.274-1.924c-5.391-1.215-10.566-1.966-15.613-0.923
					c-2.513,0.483-5.05,1.287-7.443,2.338l-1.777,0.824c-0.597,0.291-1.18,0.5-1.801,0.893l-3.684,2.122l-0.371,0.209l-0.422,0.275
					l-0.845,0.552c-0.57,0.36-1.129,0.736-1.661,1.146c-1.104,0.772-2.13,1.635-3.166,2.493c-2.017,1.772-3.84,3.748-5.489,5.867
					c-3.286,4.251-5.619,9.258-6.907,14.594C36.904,492.357,36.54,497.935,37.312,503.382z"/>
			</g>
			<path style="fill:#173D4F;" d="M67.5,506.5c0,0-9-34.5,21.25-29s34,8.5,66.25-5.75s39.25,38.25,15,36S67.5,506.5,67.5,506.5z"/>
		</g>
		<g style="clip-path:url(#SVGID_00000098189259724602943120000009997697431796442242_);">
			<g>
				<path style="fill:#5499BA;" d="M639.195,502.423c-2.053-3.179-3.439-6.728-4.42-10.391c-0.952-3.67-1.502-7.478-1.515-11.302
					c-0.097-1.919,0.106-3.822,0.196-5.744c0.093-0.953,0.246-1.899,0.368-2.853c0.14-0.95,0.256-1.908,0.499-2.836
					c0.437-1.866,0.802-3.765,1.438-5.575l0.867-2.751c0.319-0.905,0.699-1.785,1.061-2.675l1.112-2.658l1.343-2.579
					c0.585-0.892,1.161-1.823,1.789-2.671c0.67-0.784,1.271-1.637,2.017-2.357c2.864-3.021,6.497-5.218,10.225-6.709
					c3.748-1.477,7.595-2.323,11.382-2.908c3.796-0.561,7.549-0.846,11.241-1.07c3.696-0.19,7.321-0.429,10.867-0.793
					c3.532-0.389,7.011-0.961,10.176-2.139c3.148-1.184,6.032-2.961,8.099-5.604l0.781-0.986l0.839-1.158
					c0.51-0.742,1.156-1.52,1.756-2.279c1.234-1.483,2.524-2.885,3.923-4.186c1.354-1.343,2.835-2.545,4.332-3.711
					c1.529-1.127,3.107-2.182,4.739-3.141c3.261-1.921,6.728-3.482,10.336-4.621c3.602-1.16,7.367-1.853,11.208-1.932
					c1.919-0.038,3.865,0.095,5.801,0.534c1.923,0.44,3.884,1.206,5.565,2.668l0.409,0.355l0.018,0.648
					c0.206,7.708,0.551,15.417,0.842,23.125l0.438,11.563c0.114,3.854,0.258,7.708,0.323,11.563
					c0.181,7.708,0.281,15.417,0.414,23.125l0.31,23.125l0.051,3.739l-3.813-0.018c-4.781-0.021-9.563-0.052-14.344-0.123
					l-7.172-0.12l-7.171-0.151c-4.78-0.127-9.561-0.238-14.341-0.413l-7.17-0.239l-7.17-0.255l-14.339-0.607l-7.169-0.361
					l-7.168-0.377l-7.169-0.42l-7.167-0.464c-4.778-0.309-9.557-0.681-14.334-1.091l-0.197-0.017L639.195,502.423z M639.733,501.888
					c4.708-0.3,9.417-0.564,14.124-0.766l7.177-0.308l7.175-0.264l7.176-0.221l7.175-0.205l14.349-0.295l7.174-0.099l7.174-0.083
					c4.782-0.07,9.564-0.078,14.346-0.101l7.173,0.005l7.173,0.036c4.781,0.032,9.563,0.106,14.343,0.189l-3.762,3.722l0.31-23.125
					c0.133-7.708,0.233-15.417,0.414-23.125c0.065-3.854,0.209-7.708,0.323-11.563l0.438-11.563
					c0.291-7.708,0.636-15.417,0.842-23.125l0.427,1.004c-1.05-1.052-2.581-1.817-4.237-2.237c-1.653-0.444-3.415-0.642-5.185-0.673
					c-3.555-0.052-7.139,0.608-10.581,1.652c-3.445,1.061-6.744,2.607-9.789,4.53c-3.04,1.938-5.813,4.268-8.248,6.891
					c-1.21,1.315-2.32,2.731-3.342,4.173c-0.487,0.733-0.981,1.411-1.458,2.232l-0.692,1.151l-0.822,1.273
					c-2.204,3.435-5.621,6.026-9.23,7.751c-3.631,1.764-7.474,2.649-11.231,3.348c-3.771,0.689-7.519,1.006-11.188,1.389
					c-3.673,0.351-7.29,0.655-10.808,1.162c-3.513,0.492-6.944,1.172-10.103,2.348c-3.148,1.186-5.975,2.88-8.337,5.098
					c-0.616,0.53-1.102,1.19-1.669,1.775c-0.496,0.615-0.917,1.243-1.4,1.858l-1.325,2.277l-1.133,2.407
					c-0.368,0.808-0.797,1.593-1.143,2.409l-0.969,2.478c-0.711,1.637-1.154,3.352-1.682,5.051
					c-0.289,0.845-0.447,1.717-0.643,2.583c-0.191,0.866-0.417,1.73-0.584,2.604c-0.239,1.758-0.6,3.517-0.669,5.3
					c-0.179,1.78-0.157,3.565-0.184,5.364l0.146,2.689c0.06,0.898,0.202,1.786,0.296,2.686
					C637.531,495.077,638.358,498.592,639.733,501.888z"/>
			</g>
			<path style="fill:#E38338;" d="M666,506.25c0,0-17.5-24,1.75-36s36.25,1,45.25-9.5s28.75-40.75,43-26l1.25,71.25L666,506.25z"/>
		</g>
		<g style="clip-path:url(#SVGID_00000098189259724602943120000009997697431796442242_);">
			<g>
				<path style="fill:#173D4F;" d="M591.356-3.878c-0.033,4.406,0.241,8.814,0.723,13.163c0.496,4.462,1.278,8.873,2.397,13.156
					c1.142,4.271,2.608,8.436,4.621,12.245c2.02,3.796,4.547,7.261,7.646,10.002c3.115,2.728,6.802,4.657,10.766,5.769
					c0.97,0.343,2.004,0.496,3.021,0.7c1.006,0.245,2.06,0.303,3.101,0.41c0.497,0.042,1.094,0.125,1.51,0.136l1.701,0.05
					l1.697,0.047l1.584-0.038c4.246-0.108,8.559-0.609,12.612-1.712c1.007-0.308,2.028-0.574,3.009-0.955
					c1.003-0.322,1.971-0.736,2.944-1.141c1.924-0.865,3.804-1.85,5.62-2.995c1.822-1.138,3.615-2.378,5.388-3.712l5.391-4.134
					c3.664-2.767,7.739-5.559,12.474-6.978c4.729-1.396,9.713-1.344,14.296-0.352l1.672,0.335l1.717,0.421
					c1.146,0.276,2.24,0.629,3.353,0.965c2.203,0.719,4.357,1.552,6.485,2.429c4.234,1.807,8.306,3.903,12.338,6.005
					c4.023,2.106,8.011,4.257,12.153,5.899c4.109,1.693,8.435,2.793,12.699,2.676c2.127-0.049,4.227-0.414,6.237-1.066
					c2.009-0.667,3.928-1.597,5.764-2.685l-1.016,1.796l-0.819-12.674c-0.285-4.224-0.523-8.45-0.764-12.676
					c-0.26-4.225-0.428-8.453-0.643-12.68l-0.574-12.681l3.293,3.196L733.406-0.68l-10.172,0.116l-10.172,0.067l-10.172,0.001
					l-10.172-0.063l-10.172-0.12l-10.172-0.169c-6.781-0.151-13.563-0.236-20.344-0.449c-6.781-0.182-13.563-0.368-20.344-0.626
					l-10.172-0.386l-10.172-0.445l-10.172-0.522C597.9-3.452,594.628-3.66,591.356-3.878z M591-4.6
					c3.391-0.226,6.781-0.442,10.172-0.624l10.172-0.522l10.172-0.445l10.172-0.386c6.781-0.258,13.563-0.444,20.344-0.626
					c6.781-0.213,13.563-0.298,20.344-0.449l10.172-0.169l10.172-0.12l10.172-0.063l10.172,0l10.172,0.067l10.172,0.116
					l20.344,0.276l3.249,0.044l0.044,3.153l0.176,12.693c0.034,4.232,0.116,8.462,0.106,12.695c0.01,4.232,0.021,8.465-0.014,12.699
					l-0.069,12.701l-0.007,1.29l-1.01,0.507c-2.15,1.08-4.402,1.992-6.756,2.596c-2.355,0.602-4.803,0.823-7.21,0.761
					c-4.846-0.139-9.422-1.644-13.635-3.505c-4.227-1.892-8.213-4.118-12.213-6.25c-3.984-2.157-8.007-4.201-12.171-5.853
					c-4.177-1.655-8.449-2.837-12.863-3.468l-0.843-0.122l-0.781-0.059l-1.624-0.121c-1.079,0.005-2.157-0.037-3.216,0.084
					c-2.123,0.173-4.195,0.614-6.143,1.383c-3.908,1.535-7.281,4.227-10.611,7.191c-3.317,2.976-6.754,6.158-10.673,8.914
					c-3.948,2.704-8.372,4.942-13.057,6.279c-4.691,1.36-9.478,1.896-14.3,1.908l-1.82,0.002l-1.705-0.079l-1.701-0.083
					c-0.717-0.036-1.245-0.129-1.878-0.193c-1.214-0.147-2.43-0.249-3.633-0.552c-1.205-0.262-2.416-0.479-3.59-0.905
					c-4.739-1.453-9.165-4.07-12.751-7.473c-3.606-3.407-6.238-7.608-8.207-11.944c-0.532-1.073-0.901-2.204-1.356-3.3
					c-0.393-1.117-0.772-2.236-1.112-3.364c-0.625-2.27-1.182-4.547-1.563-6.846c-0.844-4.585-1.155-9.215-1.195-13.814
					c-0.003-4.603,0.288-9.185,1.032-13.712L590.7-4.58L591-4.6z"/>
			</g>
			<path style="fill:#5CD7C2;" d="M610.25-10c0,0-2.5,36.25,28.5,35.5s21.5-29.75,82-3.5c0,0,25.25,9.5,37-19.75l-0.25-11.5
				L610.25-10z"/>
		</g>
		<g style="clip-path:url(#SVGID_00000098189259724602943120000009997697431796442242_);">
			<g>
				<path style="fill:#E38338;" d="M145.553-5.425c2.46,3.91,3.943,8.398,4.475,13.07c0.489,4.667-0.086,9.552-1.88,14.013
					c-1.778,4.458-4.517,8.533-7.887,11.888c-3.345,3.387-7.133,6.267-11.147,8.691c-4.036,2.384-8.249,4.383-12.529,6.18
					c-1.077,0.424-2.162,0.828-3.248,1.227l-3.181,1.17l-3.184,1.16c-1.052,0.391-2.04,0.815-3.064,1.219
					c-2.036,0.782-4.043,1.734-6.057,2.618c-1.968,0.979-3.978,1.876-5.901,2.924c-3.875,2.045-7.598,4.329-11.155,6.831
					c-3.532,2.538-6.868,5.333-9.993,8.399c-3.119,3.072-6.02,6.422-8.926,9.884c-2.911,3.452-5.908,7.007-9.45,10.106
					c-1.752,1.56-3.684,2.944-5.708,4.136c-2.004,1.236-4.153,2.204-6.33,3.031c-1.101,0.382-2.194,0.785-3.318,1.066
					c-0.582,0.155-1.065,0.31-1.725,0.465l-1.657,0.353l-3.315,0.707c-1.137,0.177-2.314,0.279-3.468,0.419
					c-4.615,0.398-9.327,0.417-13.866-0.918c-1.132-0.3-2.219-0.775-3.33-1.159c-1.095-0.43-2.121-1.035-3.185-1.55
					c-1.003-0.623-1.987-1.297-2.945-1.997l-1.342-1.179l-0.67-0.592c-0.209-0.211-0.402-0.441-0.603-0.661l-1.195-1.338
					c-0.377-0.464-0.708-0.967-1.063-1.451l-0.523-0.735c-0.16-0.254-0.298-0.524-0.448-0.786c-0.285-0.533-0.605-1.048-0.859-1.601
					l-0.699-1.697c-0.215-0.576-0.347-1.194-0.521-1.793c-0.19-0.59-0.201-1.27-0.301-1.905c-0.059-0.312-0.037-0.668-0.019-1.02
					l0.063-1.056l-0.03,0.313l-0.772-21.498l-0.373-10.749l-0.3-10.749L-6.485,18.51l-0.34-21.499l-0.056-3.499l3.577-0.086
					c6.187-0.149,12.373-0.357,18.56-0.433l9.281-0.155c3.094-0.048,6.187-0.119,9.282-0.117l18.565-0.09
					c3.094-0.028,6.189,0.01,9.284,0.015l9.284,0.037c6.189,0.003,12.38,0.12,18.569,0.175c6.19,0.053,12.381,0.212,18.572,0.312
					l9.287,0.228c3.096,0.069,6.191,0.162,9.288,0.281l9.288,0.326c3.096,0.093,6.193,0.251,9.29,0.396l0.205,0.01L145.553-5.425z
					 M145.027-4.883c-3.015,0.233-6.03,0.478-9.045,0.661l-9.274,0.608c-3.091,0.213-6.183,0.399-9.275,0.562l-9.275,0.509
					c-6.185,0.288-12.369,0.634-18.554,0.875c-6.185,0.243-12.37,0.548-18.556,0.738L61.77-0.614
					c-3.093,0.099-6.186,0.23-9.279,0.296l-18.56,0.473c-3.093,0.095-6.187,0.119-9.281,0.164l-9.281,0.127
					C9.182,0.557,2.993,0.536-3.196,0.575L0.325-3.01L0.11,18.49l-0.284,21.501l-0.238,10.751l-0.311,10.751l-0.647,21.502
					l-0.001,0.037l-0.028,0.276l-0.064,0.633c-0.027,0.21-0.072,0.418-0.031,0.667c0.064,0.48,0.015,0.952,0.154,1.447
					c0.121,0.49,0.191,0.99,0.346,1.48l0.516,1.466c0.191,0.483,0.452,0.943,0.673,1.419c0.118,0.235,0.223,0.477,0.351,0.706
					l0.429,0.667c0.292,0.44,0.556,0.902,0.869,1.331l1.022,1.225c2.772,3.242,6.608,5.559,10.777,6.748
					c4.157,1.271,8.674,1.377,13.002,0.885c1.086-0.149,2.163-0.25,3.253-0.434l3.303-0.756l1.651-0.379
					c0.433-0.125,1.022-0.33,1.525-0.49c1.057-0.313,2.068-0.74,3.086-1.142c4.049-1.67,7.688-4.127,10.734-7.224
					c3.095-3.054,5.646-6.688,8.291-10.349c2.646-3.662,5.34-7.428,8.472-10.888c0.784-0.863,1.56-1.735,2.389-2.562
					c0.806-0.848,1.643-1.666,2.502-2.465c1.705-1.609,3.518-3.103,5.368-4.54c3.696-2.889,7.69-5.355,11.79-7.55
					c2.043-1.121,4.136-2.12,6.243-3.09c2.138-0.895,4.235-1.843,6.433-2.644c1.084-0.407,2.184-0.849,3.256-1.226l3.205-1.102
					l6.325-2.19c4.114-1.545,8.148-3.275,11.982-5.344c3.79-2.12,7.437-4.486,10.606-7.371c3.181-2.863,5.873-6.222,7.753-10.033
					c0.899-1.917,1.658-3.917,2.128-6.007c0.469-2.087,0.706-4.243,0.696-6.416c0.003-2.173-0.225-4.367-0.683-6.526
					C146.511-0.832,145.911-2.93,145.027-4.883z"/>
			</g>
			<path style="fill:#EBDD3F;" d="M-7.5,52.5c0,0,13,25.25,38.25,19.75S56,22,87,25s34.5-35.5,34.5-35.5L-7.25-7.25L-7.5,52.5z"/>
		</g>
	</g>
	<g>
		<defs>
			<rect id="SVGID_00000058580346370734318530000011224275812910552218_" width="750" height="500"/>
		</defs>
		<clipPath id="SVGID_00000061469297862683169840000011773590612482788768_">
			<use xlink:href="#SVGID_00000058580346370734318530000011224275812910552218_"  style="overflow:visible;"/>
		</clipPath>
		<g style="clip-path:url(#SVGID_00000061469297862683169840000011773590612482788768_);">
			<path style="fill:#EBDD3F;" d="M333.75,505.25c0,0-5.75-30.25,29-50S441,457,455,457.75s81-13,86,48.25L333.75,505.25z"/>
			<path style="fill:#5499BA;" d="M757,309.5c0,0-26.75,8.25-43-23s25.25-55.75,17.5-74.25s-34.25-48.5-11-84.25
				c0,0,15.25-22.75,35.75-17.25L757,309.5z"/>
			<path style="fill:#5CD7C2;" d="M256-4c0,0-5.5,39.5,28.75,55.25S356,38,384,36.5s53.75,13,64,17.75s71.25,33.25,66.75-58.5L256-4
				z"/>
			<path style="fill:#E38338;" d="M-4.75,215.75c0,0,23.75-11.5,41.25,9.25s5.25,45.75,16.25,58s56,12.75,45.75,54
				s-81,60.25-103.75,33L-4.75,215.75z"/>
		</g>
	</g>
	<g>
		<g>
			<g>
				<path style="fill:#5499BA;" d="M114.952,108.397c0,0-0.561,0.743-1.437,2.271c-0.849,1.531-2.021,3.861-2.865,7.021
					c-0.416,1.577-0.736,3.36-0.826,5.304c-0.107,1.94,0.026,4.043,0.525,6.188c0.956,4.311,3.515,8.651,7.417,12.272
					c1.933,1.833,4.165,3.524,6.61,5.114c2.548,1.593,5.109,2.947,7.98,4.236c0.72,0.307,1.444,0.615,2.173,0.925
					c0.745,0.276,1.495,0.554,2.25,0.834c0.749,0.297,1.527,0.534,2.303,0.795c0.774,0.266,1.56,0.516,2.363,0.726
					c3.183,0.938,6.521,1.685,9.971,2.154c3.446,0.471,7.004,0.705,10.6,0.557c3.597-0.103,7.231-0.621,10.773-1.564
					c0.886-0.233,1.756-0.525,2.637-0.785c0.873-0.282,1.727-0.624,2.587-0.945c0.85-0.35,1.67-0.765,2.506-1.143
					c0.816-0.418,1.608-0.882,2.413-1.319c3.116-1.918,5.872-4.411,7.812-7.385c1.956-2.959,3.067-6.368,3.171-9.832l0.02-1.299
					c0.016-0.431,0.021-0.862-0.039-1.296c-0.104-0.861-0.113-1.742-0.284-2.573l-0.225-1.386l-0.11-0.692l-0.143-0.632
					c-0.196-0.84-0.349-1.679-0.622-2.51c-0.441-1.69-1.107-3.244-1.834-4.712c-0.778-1.434-1.725-2.697-2.829-3.708
					c-2.202-2.035-5.114-2.908-8.233-2.915c-3.124-0.013-6.333,0.686-9.53,1.544c-1.627,0.419-3.188,0.91-5.05,1.302l-0.741,0.131
					l-0.861,0.09l-0.563-0.003l-0.349-0.011l-0.617-0.034c-0.232-0.02-0.356-0.005-0.496,0l-0.429,0.012l-1.152,0.085
					c-1.606,0.14-3.527,0.25-5.424-0.089c-1.902-0.325-3.686-1.07-5.201-2.007c-2.999-1.93-5.058-4.406-6.821-6.793
					c-0.419-0.609-0.834-1.211-1.245-1.808c-0.376-0.564-0.748-1.122-1.117-1.674c-0.685-0.986-1.486-1.953-2.309-2.78
					c-1.648-1.669-3.573-2.796-5.593-3.102c-2.019-0.33-4.056,0.143-5.777,0.945c-1.749,0.771-3.224,1.833-4.479,2.864
					c-2.5,2.1-4.164,4.11-5.271,5.475C115.5,107.628,114.952,108.397,114.952,108.397z M114.548,108.103c0,0,0.536-0.78,1.614-2.195
					c1.093-1.402,2.68-3.484,5.089-5.824c1.215-1.154,2.627-2.4,4.423-3.463c1.776-1.049,4.025-1.94,6.624-1.893
					c2.594,0.035,5.298,1.146,7.531,2.868c1.122,0.873,2.152,1.831,3.167,2.959c0.482,0.544,0.882,1.015,1.376,1.6
					c0.429,0.508,0.863,1.021,1.302,1.54c1.802,1.991,3.819,3.918,6.043,5.203c1.126,0.596,2.268,1.021,3.486,1.188
					c1.224,0.178,2.531,0.067,4.149-0.105l1.284-0.12l0.797-0.035c0.27-0.01,0.556-0.019,0.734-0.006l0.945,0.027l0.375-0.05
					l0.486-0.098c1.397-0.305,3.063-0.809,4.735-1.252c3.376-0.886,7.056-1.69,11.038-1.544c1.982,0.075,4.046,0.401,6.041,1.147
					c1.995,0.734,3.878,1.931,5.403,3.441c1.531,1.509,2.725,3.28,3.633,5.123c0.223,0.462,0.408,0.935,0.611,1.402
					c0.212,0.467,0.389,0.94,0.534,1.42l0.469,1.433l0.355,1.447c0.259,0.954,0.403,1.958,0.576,2.947l0.124,0.742l0.077,0.697
					l0.149,1.396c0.166,2.031,0.17,4.041-0.073,6.071c-0.482,4.051-2.175,7.96-4.683,11.091c-2.502,3.15-5.698,5.58-9.104,7.397
					c-0.867,0.425-1.721,0.876-2.594,1.275c-0.89,0.358-1.765,0.752-2.662,1.076c-0.905,0.299-1.79,0.655-2.698,0.929
					c-0.913,0.255-1.816,0.543-2.732,0.77c-7.324,1.843-14.773,2.425-21.988,2.182c-3.611-0.117-7.168-0.508-10.608-1.186
					c-3.44-0.674-6.772-1.603-9.908-2.852c-3.11-1.239-6.158-2.832-8.744-4.555c-2.649-1.785-5.028-3.83-7.036-6.069
					c-2.011-2.238-3.588-4.717-4.712-7.227c-1.104-2.524-1.718-5.081-1.944-7.482c-0.438-4.832,0.539-8.916,1.607-12.073
					c1.085-3.175,2.343-5.486,3.224-7.034C113.961,108.868,114.548,108.103,114.548,108.103z"/>
			</g>
			<path style="fill:#E38338;" d="M155.75,126.5c0,0-13-1-10,10S171,144,167,132.75C167,132.75,165,126.5,155.75,126.5z"/>
		</g>
		<g>
			<path style="fill:#EBDD3F;" d="M364.25,133.75c0,0-9.25-0.75-8.5,8.25s12.25,5.75,13.25,2S370.25,134.5,364.25,133.75z"/>
			<g>
				<path style="fill:#EBDD3F;" d="M343.125,139.506c0,0.001-0.009,0.466,0.079,1.354c0.091,0.883,0.32,2.188,0.913,3.736
					c0.589,1.54,1.593,3.323,3.161,4.904c1.553,1.593,3.626,2.932,6.046,3.858c0.578,0.283,1.236,0.441,1.878,0.649
					c0.305,0.095,0.68,0.236,0.932,0.298c0.371,0.098,0.745,0.196,1.122,0.295c0.376,0.104,0.758,0.197,1.137,0.313
					c0.356,0.082,0.715,0.165,1.077,0.249c0.362,0.08,0.722,0.181,1.087,0.273c0.374,0.074,0.751,0.149,1.13,0.224
					c0.38,0.08,0.762,0.16,1.147,0.241c0.384,0.057,0.771,0.115,1.16,0.173c0.783,0.161,1.565,0.219,2.367,0.281
					c0.81,0.111,1.593,0.031,2.422,0.056c0.412,0.002,0.803-0.087,1.214-0.124c0.4-0.068,0.838-0.056,1.225-0.189
					c0.793-0.214,1.631-0.396,2.378-0.797c0.377-0.189,0.801-0.319,1.153-0.566l1.066-0.744c0.374-0.233,0.682-0.548,0.991-0.865
					l0.932-0.956c0.271-0.357,0.514-0.739,0.773-1.108c0.243-0.382,0.547-0.724,0.725-1.15c1.729-3.233,2.475-7.018,2.532-10.782
					l0.041-0.701l-0.007-0.674c-0.013-0.475,0.006-0.989-0.033-1.43l-0.122-1.294l-0.217-1.296
					c-0.323-1.702-0.876-3.275-1.686-4.591c-0.831-1.304-1.91-2.359-3.201-3.141c-1.312-0.753-2.774-1.303-4.322-1.607
					c-1.545-0.301-3.136-0.45-4.71-0.461c-0.785-0.013-1.568,0.008-2.331,0.064c-0.381,0.023-0.758,0.054-1.122,0.094
					c-0.346,0.038-0.752,0.097-0.945,0.137c-3.186,0.737-5.952,1.469-8.515,2.412c-2.544,0.914-4.791,2.035-6.552,3.404
					c-1.77,1.357-2.98,2.976-3.687,4.453c-0.716,1.48-0.969,2.777-1.111,3.651C343.17,139.034,343.125,139.504,343.125,139.506z
					 M342.625,139.489c0-0.001,0.03-0.488,0.087-1.403c0.112-0.911,0.268-2.26,0.8-3.924c0.526-1.659,1.419-3.647,2.93-5.671
					c1.513-2.009,3.642-4.017,6.294-5.645c1.326-0.813,2.772-1.538,4.318-2.137c1.539-0.626,3.194-1.064,4.784-1.572
					c0.612-0.155,1.033-0.219,1.519-0.296c0.469-0.071,0.933-0.127,1.399-0.173c0.932-0.086,1.872-0.11,2.827-0.104
					c1.906,0.026,3.873,0.252,5.849,0.781c1.971,0.516,3.974,1.349,5.791,2.615c1.805,1.282,3.383,3.037,4.398,5.055
					c1.025,2.021,1.458,4.223,1.537,6.334c-0.001,0.53,0.001,1.054-0.015,1.581l-0.135,1.596c-0.052,0.521-0.149,0.967-0.222,1.454
					l-0.129,0.767l-0.172,0.73l-0.68,2.901l-0.884,2.845c-0.287,0.944-0.714,1.853-1.063,2.77c-0.351,0.919-0.888,1.768-1.301,2.656
					c-1.864,3.463-4.869,6.364-8.5,7.974c-3.641,1.606-7.606,1.82-11.085,1.372c-0.877-0.092-1.74-0.259-2.588-0.463
					c-0.422-0.1-0.841-0.199-1.257-0.297c-0.381-0.107-0.754-0.235-1.126-0.35c-0.371-0.12-0.739-0.238-1.104-0.356
					c-0.478-0.167-0.802-0.332-1.203-0.497c-0.76-0.338-1.508-0.648-2.179-1.108c-0.676-0.438-1.358-0.814-1.923-1.354
					c-0.579-0.509-1.171-0.954-1.642-1.518c-0.478-0.55-0.969-1.046-1.336-1.628c-0.385-0.562-0.781-1.078-1.063-1.649
					c-1.232-2.205-1.846-4.256-2.248-5.932c-0.397-1.682-0.546-3.02-0.621-3.934c-0.078-0.912-0.06-1.411-0.06-1.411
					L342.625,139.489z"/>
			</g>
		</g>
		<g>
			<path style="fill:#173D4F;" d="M203.667,384.501c0,0-10.334-5-13.667,1.333c-3.333,6.333,1.333,15.999,11.833,16.333
				C212.333,402.501,213.167,388.501,203.667,384.501z"/>
			<g>
				<path style="fill:#E38338;" d="M206.429,359.741c-0.002-0.001-0.058-0.015-0.171-0.043c-0.11-0.025-0.275-0.061-0.508-0.094
					c-0.458-0.077-1.154-0.132-2.064-0.12c-1.81,0.056-4.52,0.461-7.627,1.892c-1.564,0.678-3.228,1.584-4.912,2.762
					c-0.869,0.541-1.694,1.233-2.577,1.895c-0.874,0.676-1.706,1.479-2.601,2.247c-0.868,0.805-1.719,1.689-2.614,2.564
					c-0.855,0.938-1.735,1.901-2.638,2.891c-1.682,1.985-3.429,4.138-4.98,6.513c-1.539,2.371-2.991,4.924-3.969,7.683
					c-0.968,2.751-1.545,5.701-1.212,8.685c0.289,2.979,1.428,5.968,3.231,8.744l0.688,1.043c0.186,0.291,0.52,0.696,0.774,1.04
					c0.545,0.729,1.095,1.442,1.656,2.084c0.55,0.672,1.12,1.339,1.745,1.974l0.918,0.973c0.316,0.313,0.651,0.607,0.977,0.915
					c5.2,4.936,12.378,8.105,20.011,8.949c7.627,1.061,15.521,0.087,23.188-1.337c0.956-0.191,1.931-0.353,2.869-0.567
					c0.96-0.22,1.94-0.422,2.883-0.654c1.887-0.451,3.777-0.935,5.645-1.463c3.737-1.036,7.408-2.204,10.927-3.572
					c3.504-1.39,6.877-2.99,9.802-4.986c2.868-1.995,5.363-4.47,6.156-7.127c0.399-1.317,0.383-2.628,0.06-3.96
					c-0.349-1.331-1.062-2.656-1.966-3.899l-0.725-0.915l-0.089-0.114c0.138,0.153,0.006,0.008,0.022,0.025l-0.057-0.06
					l-0.225-0.244l-0.449-0.486l-0.224-0.243c-0.071-0.072-0.125-0.108-0.187-0.164l-0.356-0.314
					c-0.213-0.225-0.518-0.397-0.771-0.605c-1.065-0.787-2.15-1.159-3.484-1.281c-2.654-0.252-6.29,0.628-9.898,0.149
					c-1.802-0.206-3.555-0.676-5.162-1.317c-1.618-0.64-3.032-1.532-4.365-2.42c-2.647-1.815-4.711-3.984-6.54-6.076
					c-0.935-1.035-1.743-2.114-2.562-3.133c-0.764-1.058-1.547-2.052-2.223-3.068c-1.391-2.008-2.601-3.933-3.733-5.698
					c-0.542-0.897-1.062-1.757-1.559-2.579c-0.513-0.86-0.968-1.478-1.572-2.085c-0.6-0.572-1.184-1.118-1.817-1.523
					c-0.31-0.211-0.6-0.434-0.9-0.617c-0.315-0.159-0.62-0.313-0.913-0.462c-0.294-0.148-0.577-0.291-0.849-0.428
					c-0.288-0.101-0.564-0.197-0.828-0.29c-0.529-0.185-1.009-0.353-1.439-0.503c-1.791-0.37-2.746-0.567-2.746-0.567
					L206.429,359.741z M206.557,359.258c0.154,0.027,1.117,0.2,2.805,0.502c1.779,0.547,4.5,1.36,7.252,3.697
					c0.668,0.569,1.348,1.386,1.861,2.139c0.575,0.759,1.176,1.554,1.803,2.381c1.282,1.632,2.697,3.371,4.302,5.135
					c0.78,0.901,1.657,1.761,2.516,2.68c0.905,0.871,1.805,1.8,2.801,2.653c1.946,1.76,4.137,3.423,6.507,4.776
					c2.395,1.32,4.956,2.274,7.712,2.422c1.384,0.072,2.825-0.009,4.42-0.175c1.595-0.147,3.354-0.429,5.428-0.298
					c1.02,0.037,2.115,0.269,3.173,0.594c1.05,0.368,2.067,0.865,2.958,1.482c0.439,0.317,0.881,0.611,1.292,1.007
					c0.388,0.359,0.897,0.8,1.141,1.096l0.447,0.488l0.224,0.244l0.189,0.212l0.116,0.147l0.925,1.18
					c1.181,1.64,2.237,3.528,2.807,5.729c0.579,2.194,0.479,4.692-0.272,6.899c-0.736,2.23-2.082,4.076-3.548,5.628
					c-1.482,1.555-3.148,2.817-4.87,3.929c-3.468,2.177-7.169,3.778-10.953,5.089c-7.566,2.601-15.536,3.977-23.442,4.814
					l-2.976,0.328c-0.993,0.099-1.994,0.139-2.989,0.21c-0.997,0.059-1.989,0.141-2.984,0.179l-2.989,0.04
					c-3.975,0.091-7.949-0.09-11.856-0.615c-7.814-0.92-15.424-3.727-21.522-8.423c-0.38-0.292-0.77-0.573-1.141-0.874l-1.078-0.935
					c-0.73-0.606-1.419-1.265-2.092-1.94c-0.703-0.668-1.328-1.334-1.931-1.993c-0.317-0.352-0.59-0.611-0.942-1.036l-0.891-1.124
					c-0.287-0.383-0.609-0.736-0.864-1.143l-0.769-1.216c-0.544-0.789-0.936-1.674-1.345-2.541c-0.448-0.85-0.657-1.803-0.977-2.702
					c-0.294-0.91-0.403-1.867-0.602-2.795c-0.513-3.782,0.16-7.518,1.381-10.744c1.212-3.262,3.046-6.013,4.934-8.456
					c1.853-2.485,4.004-4.492,6.027-6.431c1.043-0.884,2.058-1.744,3.045-2.581c1.045-0.791,2.031-1.584,3.029-2.3
					c2.019-1.404,3.951-2.646,5.823-3.645c0.934-0.502,1.835-0.97,2.734-1.341c0.868-0.432,1.735-0.759,2.556-1.067
					c3.294-1.229,6.072-1.558,7.946-1.599c0.942-0.005,1.665,0.057,2.151,0.142c0.241,0.035,0.43,0.078,0.557,0.108
					C206.484,359.238,206.538,359.253,206.557,359.258z"/>
			</g>
		</g>
		<g>
			<path style="fill:#5CD7C2;" d="M630.833,401.25c0,0-6.667,0.416-6.75,12.083c-0.083,11.667,16.75,10.166,15-1
				C637.333,401.167,630.833,401.25,630.833,401.25z"/>
			<g>
				<path style="fill:#173D4F;" d="M629.946,370.577c0,0-0.157-0.04-0.474-0.069c-0.317-0.036-0.799-0.055-1.416,0.013
					c-0.621,0.049-1.371,0.269-2.162,0.678c-0.795,0.402-1.599,1.087-2.229,2.045c-0.174,0.228-0.327,0.478-0.451,0.757
					c-0.13,0.274-0.291,0.536-0.404,0.834c-0.196,0.612-0.44,1.225-0.55,1.923c-0.17,0.673-0.25,1.4-0.315,2.153
					c-0.08,0.785-0.125,1.6-0.192,2.44c-0.127,1.684-0.261,3.475-0.402,5.362c-0.154,0.964-0.314,1.951-0.477,2.963
					c-0.182,1.011-0.294,2.074-0.595,3.105c-0.3,1.035-0.606,2.092-0.918,3.168c-0.313,1.086-0.78,2.096-1.201,3.166
					c-0.421,1.011-0.851,2.039-1.285,3.084c-0.416,1.017-0.802,2.071-1.195,3.14c-0.764,2.143-1.458,4.384-2.021,6.704
					c-0.568,2.32-0.982,4.734-1.07,7.208c-0.1,2.469,0.17,5.007,1.023,7.399c0.78,2.421,2.311,4.591,4.249,6.308
					c0.473,0.444,1.028,0.796,1.538,1.2c0.551,0.351,1.105,0.702,1.676,1.023c0.601,0.272,1.185,0.577,1.795,0.825
					c0.624,0.224,1.234,0.476,1.866,0.676l1.884,0.495l2.034,0.364c0.648,0.059,1.273,0.081,1.901,0.128
					c0.641-0.009,1.285-0.046,1.919-0.067c2.538-0.251,4.899-1.157,6.869-2.576c1.996-1.384,3.62-3.272,4.931-5.369
					c2.635-4.216,4.013-9.189,4.75-14.024c0.684-4.868,0.786-9.672,0.459-14.178c-0.168-2.253-0.469-4.429-0.854-6.509
					c-0.215-1.033-0.413-2.053-0.669-3.035l-0.09-0.37l-0.021-0.093l-0.01-0.046c-0.029-0.091,0.029,0.071,0.018,0.037l-0.057-0.192
					l-0.224-0.765c-0.148-0.508-0.296-1.01-0.441-1.507c-0.273-1.035-0.619-1.881-0.923-2.754c-0.155-0.439-0.309-0.872-0.46-1.3
					c-0.188-0.42-0.376-0.835-0.561-1.244c-0.367-0.825-0.708-1.649-1.152-2.377c-0.427-0.74-0.795-1.507-1.283-2.148
					c-1.778-2.713-3.898-4.713-5.869-6.006c-1.979-1.298-3.768-1.932-4.993-2.239c-0.616-0.154-1.096-0.23-1.418-0.275
					c-0.325-0.04-0.481-0.049-0.481-0.049l-0.032-0.002L629.946,370.577z M630.027,370.085c0.114,0.003,0.817,0.03,1.988,0.291
					c1.28,0.285,3.144,0.836,5.332,1.978c1.094,0.567,2.27,1.28,3.481,2.166c1.2,0.897,2.446,1.96,3.663,3.221
					c0.65,0.601,1.187,1.322,1.8,2.03c0.632,0.701,1.161,1.497,1.729,2.309c0.276,0.409,0.568,0.818,0.845,1.248
					c0.255,0.448,0.512,0.902,0.771,1.362c0.53,0.92,1.071,1.897,1.449,2.827c0.211,0.473,0.425,0.951,0.64,1.434l0.325,0.728
					l0.082,0.183l0.103,0.282l0.141,0.4c0.395,1.069,0.733,2.174,1.039,3.308c0.59,2.27,1.011,4.653,1.298,7.115
					c0.537,4.924,0.429,10.19-0.565,15.525c-1.019,5.309-2.801,10.801-6.214,15.645c-0.406,0.612-0.919,1.168-1.376,1.752
					c-0.486,0.565-1.026,1.098-1.55,1.635c-1.14,1.001-2.338,1.953-3.691,2.686c-2.69,1.484-5.782,2.21-8.759,2.13
					c-0.742-0.057-1.477-0.104-2.212-0.185c-0.736-0.136-1.482-0.266-2.193-0.416l-1.99-0.556c-0.761-0.258-1.362-0.497-2.048-0.742
					c-0.662-0.255-1.306-0.564-1.955-0.844c-0.64-0.307-1.254-0.672-1.877-1.005c-0.6-0.379-1.201-0.757-1.786-1.153
					c-0.549-0.45-1.14-0.846-1.648-1.341c-2.09-1.903-3.789-4.228-4.899-6.785c-1.107-2.558-1.762-5.27-2.019-7.962
					c-0.555-5.398,0.181-10.662,1.581-15.368c0.345-1.182,0.748-2.328,1.184-3.449c0.457-1.148,0.936-2.202,1.364-3.175
					c0.411-0.996,0.938-1.949,1.28-2.915c0.379-0.96,0.752-1.901,1.117-2.823c0.673-1.864,1.226-3.693,1.819-5.435
					c0.48-1.828,0.935-3.563,1.363-5.192c0.217-0.814,0.407-1.609,0.625-2.364c0.202-0.794,0.395-1.555,0.689-2.264
					c0.515-1.426,1.227-2.666,2.039-3.636c0.39-0.502,0.85-0.894,1.275-1.263c0.471-0.315,0.903-0.616,1.356-0.811
					c0.888-0.416,1.712-0.592,2.377-0.651c0.667-0.066,1.182-0.041,1.526,0.002C629.805,370.034,629.97,370.071,630.027,370.085z"/>
			</g>
		</g>
		<g>
			<path style="fill:#E38338;" d="M616.667,133.834c0,0-8,0-10.667,12.333C603.333,158.5,622,158,623,151.5
				S626.001,134.5,616.667,133.834z"/>
			<g>
				<path style="fill:#5CD7C2;" d="M592.763,133.731c0,0-0.053,0.023-0.155,0.07c-0.097,0.043-0.243,0.118-0.438,0.227
					c-0.38,0.223-0.953,0.561-1.596,1.136c-0.646,0.566-1.365,1.363-2.005,2.431c-0.623,1.077-1.102,2.447-1.314,4.026
					c-0.03,0.399-0.1,0.802-0.103,1.223c0.006,0.42,0.013,0.851,0.019,1.292c0.017,0.439,0.11,0.889,0.162,1.345
					c0.031,0.228,0.063,0.458,0.095,0.691c0.055,0.23,0.111,0.463,0.167,0.698c0.115,0.459,0.221,0.969,0.348,1.408
					c0.16,0.492,0.323,0.994,0.489,1.504c0.157,0.524,0.381,0.989,0.583,1.483c0.21,0.49,0.395,0.99,0.665,1.48
					c1.908,3.995,5.136,7.918,9.614,10.528c4.492,2.596,10.159,3.822,16.313,3.725c5.973,0.116,12.236-2.154,17.794-6.196
					c5.541-4.031,10.324-9.71,13.575-16.255c0.8-1.643,1.534-3.325,2.156-5.051c0.613-1.73,1.097-3.505,1.47-5.297
					c0.7-3.567,0.743-7.333,0.742-11.045c-0.079-7.441-0.833-14.884-2.405-21.862c-0.814-3.472-1.901-6.841-3.484-9.754
					c-1.549-2.93-3.691-5.293-6.204-6.408c-1.25-0.583-2.616-0.79-4.022-0.788l-0.525-0.006l-0.065-0.002
					c-0.042,0,0.144-0.009,0.026-0.001l-0.161,0.015l-0.322,0.029c-0.415,0.043-0.892,0.067-1.253,0.125l-1.014,0.179
					c-0.341,0.066-0.705,0.172-1.056,0.253c-2.804,0.76-5.28,2.231-7.273,4.263c-2.015,2.009-3.591,4.461-4.864,7.012
					c-1.266,2.562-2.29,5.201-3.188,7.819c-0.446,1.313-0.853,2.617-1.323,3.937c-0.123,0.338-0.233,0.661-0.378,1.018
					c-0.071,0.177-0.132,0.342-0.226,0.541l-0.13,0.286l-0.107,0.217c-0.287,0.586-0.571,1.165-0.852,1.736
					c-1.146,2.344-2.342,4.562-3.596,6.548c-2.508,3.984-5.212,7.077-7.648,9.355c-2.435,2.297-4.65,3.709-6.122,4.701l-2.371,1.358
					L592.763,133.731z M592.554,133.276c0.016-0.009,0.813-0.483,2.305-1.371c1.428-1.005,3.557-2.481,5.765-4.888
					c0.527-0.622,1.098-1.261,1.661-1.959c0.52-0.736,1.117-1.457,1.629-2.294c1.106-1.608,2.102-3.48,3.04-5.521
					c0.943-2.045,1.761-4.285,2.555-6.71c0.212-0.618,0.426-1.244,0.643-1.878l0.083-0.24l0.052-0.177
					c0.035-0.106,0.071-0.261,0.107-0.4c0.073-0.274,0.141-0.601,0.21-0.91c0.266-1.281,0.549-2.657,0.881-4.059
					c0.649-2.813,1.486-5.777,2.789-8.741c1.294-2.959,3.058-5.953,5.552-8.603c2.471-2.656,5.871-4.789,9.639-5.784
					c0.476-0.113,0.931-0.25,1.429-0.339l1.522-0.237c0.487-0.064,0.873-0.075,1.316-0.116l0.323-0.025l0.161-0.013
					c-0.063,0.005,0.176-0.014,0.188-0.011l0.097,0.001l0.773,0.01c2.051,0.003,4.22,0.444,6.158,1.399
					c1.946,0.934,3.636,2.301,5.007,3.846c1.386,1.543,2.46,3.272,3.325,5.047c1.745,3.556,2.796,7.302,3.501,11.075
					c1.434,7.557,1.408,15.274,0.815,22.874c-0.155,1.906-0.347,3.79-0.607,5.697c-0.226,1.848-0.559,3.822-1.056,5.663
					c-0.473,1.862-1.059,3.684-1.771,5.445c-0.69,1.768-1.458,3.496-2.311,5.172c-3.454,6.668-7.831,12.759-13.264,17.638
					c-2.72,2.424-5.725,4.523-9.01,6.038c-1.651,0.726-3.341,1.375-5.091,1.782c-0.854,0.199-1.871,0.384-2.675,0.484l-1.218,0.142
					l-1.35,0.064c-6.755,0.394-13.554-1.199-18.599-4.747c-2.515-1.765-4.521-3.954-6.074-6.201
					c-1.528-2.275-2.643-4.61-3.364-6.882c-0.214-0.551-0.351-1.137-0.507-1.695c-0.146-0.56-0.319-1.114-0.403-1.637
					c-0.107-0.526-0.214-1.042-0.318-1.549c-0.101-0.568-0.143-1.062-0.215-1.578c-0.218-2.034-0.198-3.942,0.17-5.609
					c0.331-1.67,0.941-3.083,1.631-4.203c0.711-1.113,1.509-1.911,2.184-2.509c0.68-0.599,1.285-0.951,1.691-1.184
					c0.204-0.113,0.366-0.194,0.481-0.244C592.485,133.307,592.532,133.286,592.554,133.276z"/>
			</g>
		</g>
	</g>
	<g>
		<defs>
			<rect id="SVGID_00000180361337429699798680000002064168470624593300_" width="750" height="500"/>
		</defs>
		<clipPath id="SVGID_00000119818869958465329600000012824986656537540227_">
			<use xlink:href="#SVGID_00000180361337429699798680000002064168470624593300_"  style="overflow:visible;"/>
		</clipPath>
		<g style="clip-path:url(#SVGID_00000119818869958465329600000012824986656537540227_);">
			<g>
				<g>
					<path style="fill:#5499BA;" d="M393.654,507.277c0.634-5.705,2.082-11.286,3.967-16.721c1.901-5.432,4.33-10.694,7.201-15.726
						c2.87-5.034,6.264-9.78,10.018-14.241c3.816-4.413,8.1-8.419,12.663-12.078l3.499-2.651c1.207-0.826,2.443-1.61,3.665-2.416
						c0.616-0.395,1.218-0.814,1.847-1.188l1.908-1.082c1.279-0.708,2.533-1.47,3.836-2.133c2.646-1.238,5.221-2.657,7.972-3.649
						c1.362-0.528,2.716-1.079,4.084-1.587l4.167-1.335c5.558-1.781,11.291-2.859,17.015-3.745c2.875-0.349,5.76-0.587,8.632-0.882
						l8.643-0.297l8.617,0.186c1.434,0.032,2.861,0.196,4.29,0.288l4.283,0.301l1.069,0.076l0.535,0.037l0.134,0.01l0.153,0.013
						l0.066,0.01l0.27,0.044c0.749,0.123,1.443,0.254,2.157,0.401c1.418,0.287,2.818,0.617,4.219,0.943
						c2.794,0.675,5.551,1.476,8.276,2.362c5.459,1.751,10.799,3.861,15.936,6.413c5.146,2.529,10.074,5.521,14.696,8.96
						c4.593,3.473,8.888,7.399,12.605,11.872c3.742,4.446,6.922,9.408,9.41,14.723c2.429,5.34,4.177,10.992,5.263,16.766
						c1.146,5.78,1.342,11.661,1.317,17.513l-0.013,2.91l-3.071,0.028l-23.627,0.217l-23.626,0.146
						c-3.937,0.038-7.875-0.008-11.812-0.014l-11.813-0.045l-23.624-0.352l-11.811-0.264l-11.811-0.285
						c-7.874-0.262-15.748-0.454-23.621-0.773c-7.874-0.28-15.747-0.627-23.621-0.992l-11.809-0.645l-5.905-0.322l-6.29-0.417
						L393.654,507.277z M394.47,506.957l5.44-0.303l5.907-0.26l11.816-0.52c7.876-0.282,15.753-0.545,23.629-0.742
						c7.877-0.236,15.753-0.345,23.629-0.523l11.813-0.16l11.814-0.139l23.626-0.102l11.813,0.08
						c3.938,0.035,7.875,0.031,11.813,0.111l23.623,0.396l23.623,0.467l-3.083,2.938l0.112-4.113l0.059-2.06l-0.089-2.051
						c-0.058-1.366-0.068-2.741-0.161-4.106l-0.438-4.08c-0.744-5.412-1.955-10.777-3.912-15.909
						c-1.993-5.11-4.677-9.965-7.965-14.413c-3.31-4.429-7.203-8.464-11.571-11.938c-4.34-3.514-9.132-6.471-14.138-8.992
						c-5.008-2.528-10.298-4.482-15.674-6.074c-2.703-0.752-5.429-1.419-8.174-1.959c-1.372-0.269-2.751-0.508-4.13-0.688
						c-0.683-0.096-1.39-0.182-2.046-0.246l-0.258-0.024l-0.066-0.006c0.15,0.016,0.004,0.004,0.021,0.008l-0.132-0.001
						l-0.528-0.003l-1.055-0.005c-2.814-0.003-5.624-0.065-8.429,0.018l-8.394,0.459l-8.327,0.914
						c-2.748,0.457-5.503,0.854-8.232,1.355c-2.697,0.657-5.443,1.076-8.108,1.814l-3.994,1.103
						c-0.66,0.197-1.338,0.341-1.991,0.559l-1.963,0.646l-3.926,1.288c-1.285,0.49-2.555,1.02-3.832,1.526
						c-2.588,0.944-5.032,2.196-7.539,3.324c-4.872,2.52-9.632,5.289-14.024,8.591c-4.416,3.263-8.561,6.904-12.366,10.899
						c-3.804,3.998-7.23,8.363-10.337,12.967c-3.109,4.603-5.819,9.496-8.203,14.564
						C397.877,496.526,395.862,501.652,394.47,506.957z"/>
				</g>
				<g>
					<path style="fill:#173D4F;" d="M429.65,511.976c0,0-0.028-0.188-0.041-0.581c-0.023-0.395-0.021-0.971,0.001-1.719
						c0.09-1.486,0.265-3.708,1.033-6.423c0.736-2.712,1.925-6.001,4.014-9.393c0.255-0.43,0.513-0.866,0.775-1.31
						c0.289-0.423,0.604-0.838,0.912-1.269c0.633-0.847,1.245-1.763,1.978-2.606c0.755-0.828,1.53-1.677,2.323-2.546l0.609-0.648
						l0.668-0.596c0.45-0.398,0.905-0.801,1.365-1.207c1.794-1.705,3.961-3.052,6.124-4.575c1.12-0.689,2.314-1.293,3.504-1.945
						c0.595-0.327,1.207-0.63,1.817-0.948c0.619-0.295,1.268-0.531,1.914-0.785c1.292-0.507,2.61-0.996,3.944-1.479
						c1.348-0.44,2.758-0.717,4.151-1.086c0.701-0.166,1.406-0.333,2.114-0.5c0.693-0.165,1.44-0.335,2.142-0.441
						c1.513-0.256,2.986-0.432,4.516-0.532c6.051-0.431,12.563,0.486,18.09,3.737c5.539,3.24,9.674,8.522,12.692,14.183
						c1.51,2.851,2.74,5.837,3.766,8.863c0.491,1.519,0.931,3.048,1.333,4.574c0.387,1.524,0.71,3.07,1.033,4.53l0.242,1.029
						c0.039,0.151,0.078,0.302,0.105,0.38c0.01,0.026,0.028,0.072,0.005-0.007l-0.031-0.086l-0.085-0.182
						c-0.026-0.051-0.1-0.192-0.266-0.412c-0.138-0.119-0.393-0.604-1.333-0.975c0.341-1.521-4.517,1.535-3.644,1.115
						c0.168,7.836,2.353,3.714,1.876,4.935l0.209,0.04c0.006,0.003-0.061,0.002-0.125,0.002l-0.479,0.004l-1.074,0.026
						c-1.486,0.063-2.966,0.125-4.437,0.186c-2.969,0.144-5.901,0.285-8.785,0.424c-5.776,0.3-11.368,0.454-16.676,0.485
						c-5.307,0.042-10.329-0.049-14.965-0.11c-4.638-0.124-8.89-0.235-12.661-0.431c-1.886-0.073-3.651-0.175-5.284-0.279
						c-1.633-0.098-3.132-0.184-4.487-0.296c-2.711-0.193-4.842-0.392-6.295-0.534l-2.538-0.274L429.65,511.976z M430.477,511.565
						c0.37-0.066,0.946-0.167,1.721-0.304c1.44-0.238,3.555-0.577,6.247-0.946c1.346-0.2,2.837-0.384,4.46-0.586
						c1.623-0.21,3.379-0.424,5.257-0.617c3.753-0.435,7.992-0.813,12.616-1.222c4.627-0.346,9.639-0.738,14.945-1.001
						c5.308-0.271,10.908-0.428,16.713-0.406c2.902,0.006,5.853,0.001,8.851,0.058c1.51,0.033,3.028,0.066,4.555,0.101l1.189,0.047
						l0.654,0.038l0.44,0.039l0.168,0.021l0.322,0.057c-0.438,1.235,1.816-2.884,1.988,4.995c0.843-0.383-4.072,2.681-3.772,1.141
						c-0.983-0.387-1.275-0.907-1.439-1.064c-0.195-0.257-0.294-0.439-0.34-0.532c-0.078-0.148-0.114-0.237-0.145-0.311
						l-0.084-0.218c-0.089-0.257-0.12-0.395-0.16-0.551c-0.069-0.288-0.11-0.509-0.147-0.729l-0.18-1.21
						c-0.208-1.485-0.416-2.977-0.625-4.473c-0.204-1.475-0.439-2.942-0.724-4.401c-0.521-2.928-1.222-5.831-2.198-8.639
						c-0.97-2.808-2.255-5.508-3.943-7.927c-1.716-2.386-3.822-4.501-6.322-5.978c-2.479-1.497-5.286-2.386-8.115-2.622
						c-2.831-0.257-5.657,0.097-8.339,0.747c-1.334,0.33-2.674,0.748-3.918,1.191c-1.317,0.45-2.553,1.075-3.813,1.56
						c-1.245,0.525-2.503,0.975-3.686,1.537c-1.173,0.583-2.332,1.145-3.482,1.675c-0.568,0.281-1.158,0.508-1.709,0.796
						c-0.542,0.304-1.072,0.619-1.612,0.904c-1.075,0.58-2.134,1.15-3.175,1.712c-0.987,0.641-1.958,1.27-2.911,1.889
						c-0.993,0.568-1.844,1.28-2.702,1.948c-0.434,0.331-0.862,0.658-1.286,0.982l-0.637,0.481l-0.577,0.53
						c-0.771,0.702-1.524,1.388-2.259,2.057c-0.722,0.684-1.333,1.433-1.995,2.107c-0.323,0.347-0.641,0.688-0.954,1.024
						c-0.282,0.36-0.561,0.715-0.836,1.064c-0.54,0.705-1.13,1.354-1.588,2.05c-0.477,0.691-0.936,1.357-1.377,1.997
						c-0.439,0.646-0.773,1.313-1.144,1.93c-0.177,0.313-0.359,0.614-0.54,0.908c-0.155,0.306-0.307,0.604-0.454,0.895
						c-1.225,2.316-1.943,4.275-2.422,5.62c-0.236,0.677-0.399,1.198-0.493,1.549C430.49,511.508,430.485,511.535,430.477,511.565z"
						/>
				</g>
			</g>
			<g>
				<g>
					<path style="fill:#173D4F;" d="M755.966,198.597c-3.4-1.064-6.977-1.594-10.518-1.874c-3.633-0.264-7.275-0.199-10.876,0.163
						c-3.603,0.363-7.151,1.087-10.629,2.015c-3.482,0.918-6.867,2.179-10.141,3.657c-3.294,1.438-6.436,3.201-9.516,5.045
						c-3.023,1.95-5.986,3.991-8.765,6.284c-5.628,4.49-10.767,9.602-15.461,15.105c-2.371,2.731-4.602,5.591-6.796,8.476
						l-3.174,4.425l-0.396,0.553l-0.34,0.522l-0.76,1.161l-0.759,1.161l-0.669,1.127c-1.805,2.96-3.43,6.207-4.887,9.44
						c-0.755,1.615-1.385,3.289-2.054,4.945c-0.592,1.688-1.224,3.361-1.732,5.081c-2.229,6.814-3.661,13.904-4.602,21.071
						c-0.923,7.175-1.236,14.457-1.037,21.743c0.116,3.643,0.363,7.288,0.733,10.927c0.405,3.632,0.898,7.263,1.572,10.864
						c0.301,1.808,0.7,3.597,1.07,5.393c0.439,1.779,0.823,3.574,1.317,5.342c0.919,3.552,1.978,7.07,3.182,10.539
						c2.448,6.922,5.304,13.716,8.797,20.179c3.404,6.508,7.43,12.677,11.861,18.505c4.5,5.781,9.488,11.161,14.936,15.993
						c2.734,2.401,5.543,4.716,8.518,6.791c2.952,2.103,6.001,4.061,9.168,5.79c1.561,0.908,3.193,1.676,4.793,2.497
						c1.644,0.732,3.26,1.523,4.938,2.162c3.312,1.388,6.717,2.524,10.168,3.456c3.444,0.961,6.958,1.632,10.482,2.161
						c3.529,0.529,7.096,0.725,10.656,0.832l-3.294,3.187l-0.224-58.754l0.068-14.688c0.035-4.895,0.019-9.791,0.095-14.686
						l0.41-29.374l0.624-29.372c0.271-9.791,0.482-19.581,0.821-29.371l0.484-14.686l0.556-14.685l0.659-14.684
						C755.449,208.209,755.694,203.403,755.966,198.597z M756.689,198.335c0.22,4.898,0.411,9.795,0.558,14.691l0.488,14.691
						l0.384,14.69l0.313,14.69c0.224,9.793,0.321,19.586,0.478,29.379l0.281,29.377l0.066,29.377
						c0.019,4.896-0.054,9.791-0.076,14.688l-0.104,14.688l-0.909,58.746l-0.052,3.34l-3.242-0.153
						c-7.653-0.359-15.291-1.563-22.578-3.896c-3.645-1.149-7.223-2.503-10.668-4.127c-1.742-0.771-3.409-1.694-5.101-2.558
						c-1.644-0.952-3.316-1.853-4.905-2.889c-6.448-3.994-12.34-8.78-17.743-13.998c-2.715-2.601-5.236-5.385-7.69-8.214
						c-2.424-2.856-4.703-5.824-6.899-8.846c-2.166-3.042-4.281-6.12-6.195-9.321c-0.987-1.582-1.897-3.21-2.848-4.813
						c-0.896-1.633-1.827-3.248-2.665-4.912c-3.43-6.613-6.45-13.435-9.012-20.432c-5.125-13.983-8.648-28.612-10.042-43.573
						c-0.655-7.478-0.81-15.038-0.178-22.578c0.12-1.888,0.365-3.767,0.564-5.651c0.286-1.873,0.537-3.753,0.907-5.616
						c0.681-3.734,1.532-7.452,2.656-11.098c0.531-1.831,1.192-3.625,1.816-5.43c0.702-1.778,1.368-3.57,2.167-5.313
						c1.536-3.529,3.291-6.881,5.381-10.212l0.768-1.245l0.775-1.15l0.775-1.15l0.428-0.633l0.419-0.568l3.356-4.546
						c2.335-2.96,4.66-5.934,7.231-8.71c5.075-5.596,10.617-10.814,16.708-15.358c3.037-2.281,6.269-4.302,9.555-6.212
						c3.354-1.793,6.738-3.553,10.326-4.845c7.096-2.74,14.65-4.318,22.213-4.522c3.78-0.113,7.563,0.15,11.272,0.771
						c1.857,0.298,3.695,0.7,5.499,1.219c1.805,0.52,3.58,1.106,5.301,1.894l0.209,0.096L756.689,198.335z"/>
				</g>
				<g>
					<path style="fill:#EBDD3F;" d="M755.93,276.108c-3.029,0.587-5.956,1.646-8.712,2.913c-2.883,1.347-5.589,3.001-8.089,4.889
						c-2.488,1.904-4.812,4-6.861,6.349c-2.067,2.327-3.953,4.813-5.614,7.453c-1.625,2.667-3.103,5.424-4.41,8.277
						c-1.258,2.878-2.419,5.807-3.405,8.815l-0.761,2.251l-0.684,2.283c-0.219,0.765-0.479,1.518-0.684,2.288l-0.62,2.314
						c-0.463,1.532-0.81,3.099-1.183,4.662l-0.278,1.174l-0.148,0.586c0.002-0.021-0.017,0.099,0.002-0.037l-0.007,0.038
						l-0.016,0.075l-0.029,0.151l-0.06,0.303l-0.476,2.418c-0.361,1.638-0.548,3.175-0.759,4.736
						c-0.257,1.556-0.327,3.158-0.426,4.755c-0.069,0.801-0.069,1.598-0.051,2.397l0.023,2.402c0.031,0.799,0.142,1.59,0.208,2.388
						c0.085,0.796,0.125,1.601,0.301,2.382c0.474,3.171,1.439,6.242,2.646,9.201c1.355,2.893,2.957,5.678,4.977,8.146
						c1.974,2.503,4.348,4.662,6.9,6.537c2.56,1.872,5.335,3.428,8.216,4.716c2.883,1.287,5.88,2.304,8.924,3.081
						c1.523,0.383,3.05,0.749,4.589,1.012c0.768,0.137,1.537,0.253,2.301,0.36c0.74,0.107,1.571,0.212,2.198,0.252l-3.28,2.92
						c-0.045-4.712-0.028-9.422-0.03-14.133l0.049-14.132c0.008-4.711,0.105-9.42,0.231-14.128c0.05-2.354,0.154-4.707,0.233-7.06
						c0.073-2.354,0.203-4.706,0.303-7.06c0.212-4.706,0.509-9.41,0.76-14.115l0.47-7.055c0.16-2.352,0.309-4.704,0.509-7.055
						l0.566-7.053l0.645-7.052l0.732-7.049C755.373,280.506,755.643,278.307,755.93,276.108z M756.684,275.675
						c0.2,2.36,0.372,4.72,0.519,7.079l0.398,7.076l0.313,7.073l0.233,7.072c0.089,2.357,0.126,4.714,0.176,7.07l0.136,7.069
						c0.028,4.712,0.104,9.425,0.093,14.136c-0.011,2.355,0.007,4.711-0.03,7.065c-0.032,2.354-0.039,4.71-0.101,7.064
						c-0.096,4.708-0.222,9.416-0.436,14.122l-0.618,14.118c-0.225,4.706-0.43,9.412-0.697,14.116l-0.188,3.321l-3.092-0.4
						c-1.004-0.131-1.794-0.288-2.668-0.466c-0.852-0.177-1.688-0.395-2.521-0.616c-1.666-0.44-3.295-0.98-4.91-1.551
						c-3.205-1.212-6.309-2.67-9.25-4.4c-2.942-1.727-5.714-3.733-8.254-5.986c-1.285-1.108-2.474-2.325-3.625-3.563l-1.676-1.906
						l-1.543-2.011c-1.956-2.752-3.691-5.653-5.029-8.745c-1.299-3.1-2.366-6.296-3.102-9.579c-0.231-0.813-0.329-1.645-0.495-2.471
						c-0.143-0.828-0.32-1.655-0.435-2.488l-0.304-2.507c-0.112-0.837-0.204-1.677-0.227-2.517
						c-0.067-1.683-0.245-3.365-0.184-5.078l0.018-2.571c-0.007-0.873,0.091-1.655,0.131-2.486l0.162-2.46l0.021-0.308l0.01-0.153
						l0.005-0.077l0.003-0.038l0.015-0.113l0.073-0.624l0.16-1.247c0.215-1.663,0.408-3.333,0.723-4.989
						c0.301-1.656,0.593-3.319,1.031-4.954l0.608-2.464l0.748-2.433c0.983-3.249,2.309-6.405,3.759-9.498
						c0.779-1.526,1.532-3.063,2.434-4.528c0.832-1.501,1.813-2.921,2.784-4.338c2.031-2.781,4.248-5.443,6.767-7.808
						c2.53-2.345,5.269-4.479,8.258-6.186c2.982-1.707,6.133-3.108,9.421-3.991c1.63-0.479,3.303-0.795,4.977-1.013
						c1.675-0.219,3.357-0.312,5.052-0.178l0.33,0.025L756.684,275.675z"/>
				</g>
			</g>
			<g>
				<g>
					<path style="fill:#E38338;" d="M258.555-5.614c2.296,5.475,5.352,10.616,8.669,15.499c1.736,2.504,3.552,4.946,5.484,7.292
						c1.912,2.36,3.911,4.646,6.012,6.83c4.21,4.361,8.667,8.469,13.451,12.163c4.787,3.684,9.773,7.105,15.01,10.108
						c5.242,2.985,10.619,5.747,16.2,8.064c5.576,2.32,11.264,4.381,17.065,6.108c0.703,0.213,1.488,0.481,2.122,0.648l2.232,0.605
						c1.482,0.389,2.988,0.84,4.45,1.178c2.914,0.708,5.816,1.46,8.804,2.022c2.961,0.65,5.957,1.091,8.941,1.643
						c3.002,0.396,6.004,0.869,9.027,1.123c3.017,0.36,6.049,0.491,9.084,0.681c3.035,0.054,6.08,0.179,9.12,0.053
						c6.081-0.146,12.175-0.682,18.173-1.794c5.997-1.1,11.932-2.62,17.664-4.73c5.732-2.104,11.251-4.773,16.47-7.921
						c2.638-1.531,5.122-3.306,7.567-5.114l3.575-2.835l3.398-3.04c4.398-4.192,8.359-8.821,11.749-13.823
						c3.4-4.992,6.297-10.316,8.532-15.903c2.258-5.576,3.972-11.347,5.256-17.208l2.689,3.427
						c-9.642,0.109-19.281,0.118-28.922,0.124l-28.921-0.01l-14.459-0.031L402.54-0.597c-4.819-0.065-9.64-0.063-14.458-0.185
						l-14.457-0.294c-4.819-0.106-9.638-0.175-14.457-0.327l-14.456-0.403l-14.455-0.459l-14.455-0.508L301.35-3.356l-14.453-0.661
						l-14.451-0.774l-7.226-0.394L258.555-5.614z M257.547-6.331l7.69-0.316l7.232-0.229l14.465-0.44l14.464-0.328l14.463-0.25
						l14.462-0.174l14.461-0.126l14.461-0.07c4.821-0.04,9.64,0.002,14.46,0.007l14.46,0.039c4.82-0.011,9.639,0.102,14.458,0.148
						l14.458,0.192l14.457,0.302l28.913,0.657c9.638,0.229,19.274,0.459,28.911,0.791l3.555,0.122l-0.865,3.305
						c-1.603,6.131-3.758,12.112-6.474,17.822c-2.681,5.727-6.043,11.117-9.86,16.115c-3.835,4.988-8.136,9.596-12.853,13.712
						c-4.678,4.167-9.851,7.719-15.206,10.901c-5.375,3.161-11.03,5.812-16.828,8.085c-5.838,2.169-11.815,3.96-17.899,5.326
						c-1.527,0.306-3.044,0.678-4.577,0.96l-4.612,0.806c-3.089,0.421-6.185,0.88-9.302,1.118c-3.112,0.337-6.238,0.423-9.368,0.573
						c-3.127,0.013-6.265,0.082-9.395-0.082c-3.139-0.052-6.255-0.401-9.385-0.638c-3.11-0.385-6.24-0.698-9.321-1.292
						c-3.092-0.48-6.189-1.164-9.288-1.824c-1.543-0.349-2.996-0.775-4.498-1.158l-2.236-0.591
						c-0.857-0.223-1.531-0.456-2.306-0.684l-4.506-1.376l-4.439-1.589c-1.487-0.51-2.938-1.119-4.396-1.711
						c-1.453-0.602-2.925-1.155-4.348-1.831c-5.775-2.498-11.361-5.451-16.705-8.784c-5.337-3.339-10.494-6.989-15.252-11.114
						c-4.762-4.111-9.253-8.543-13.263-13.375c-4.05-4.795-7.639-9.965-10.735-15.394c-3.069-5.441-5.698-11.14-7.338-17.17
						L257.547-6.331z"/>
				</g>
				<g>
					<path style="fill:#173D4F;" d="M308.149-9.937c0.774,2.722,1.947,5.314,3.332,7.706c0.333,0.648,0.773,1.237,1.165,1.845
						c0.381,0.616,0.826,1.188,1.283,1.747c0.827,1.178,1.854,2.192,2.806,3.242c1.084,0.933,2.069,1.946,3.239,2.751
						c0.572,0.414,1.106,0.871,1.701,1.249l1.815,1.082l0.903,0.538l0.964,0.439c0.644,0.288,1.273,0.599,1.904,0.902
						c1.289,0.56,2.655,0.961,3.968,1.456c1.369,0.368,2.761,0.668,4.131,1.011l0.257,0.065l0.213,0.039l0.559,0.101l1.118,0.2
						c0.767,0.153,1.423,0.207,2.138,0.315c2.831,0.373,5.793,0.651,8.73,0.8c1.469,0.108,2.952,0.13,4.427,0.225
						c1.481,0.022,2.961,0.128,4.446,0.137c1.485,0.046,2.971,0.075,4.461,0.092c1.49,0.049,2.98,0.03,4.474,0.035l4.484-0.043
						c1.493-0.057,2.994-0.075,4.488-0.162c2.994-0.141,5.989-0.372,8.966-0.745c2.984-0.34,5.94-0.873,8.873-1.508
						c2.917-0.687,5.825-1.452,8.633-2.487c1.422-0.471,2.799-1.048,4.186-1.596c0.696-0.27,1.353-0.627,2.03-0.935
						c0.669-0.326,1.354-0.62,1.997-0.989l1.955-1.057c0.642-0.368,1.248-0.79,1.872-1.18l0.928-0.597l0.882-0.654
						c0.577-0.448,1.198-0.841,1.735-1.329c2.245-1.844,4.171-3.994,5.621-6.325c1.45-2.336,2.338-4.888,2.569-7.479l2.603,3.004
						l-7.52,0.345l-7.52,0.245l-15.04,0.391c-5.014,0.096-10.027,0.246-15.041,0.272c-5.015,0.045-10.028,0.013-15.042-0.056
						l-7.521-0.15L352.8-7.219c-5.014-0.121-10.029-0.385-15.043-0.584l-7.522-0.409c-2.507-0.132-5.015-0.323-7.522-0.481
						c-2.507-0.163-5.015-0.379-7.522-0.572C312.843-9.467,310.496-9.689,308.149-9.937z M307.665-10.684
						c2.506-0.284,5.013-0.53,7.519-0.76c2.506-0.207,5.013-0.437,7.519-0.614c2.506-0.172,5.013-0.377,7.52-0.523l7.52-0.45
						c5.013-0.227,10.026-0.519,15.04-0.667l7.52-0.265l7.52-0.192c5.014-0.097,10.027-0.157,15.041-0.14
						c5.014-0.002,10.028,0.121,15.043,0.189l15.042,0.308l7.522,0.204l7.521,0.303l3.183,0.128l-0.578,2.877
						c-0.685,3.413-2.258,6.559-4.311,9.148c-2.063,2.59-4.514,4.741-7.155,6.469c-2.631,1.746-5.391,3.206-8.206,4.474
						c-2.829,1.239-5.69,2.364-8.6,3.323c-2.904,0.983-5.849,1.798-8.791,2.633c-2.956,0.771-5.92,1.53-8.906,2.208
						c-1.49,0.356-2.986,0.685-4.491,0.979c-1.5,0.326-3.007,0.605-4.518,0.891c-3.021,0.552-6.062,1.029-9.121,1.393
						c-3.06,0.338-6.133,0.637-9.22,0.724c-3.086,0.107-6.184,0.087-9.283-0.118c-3.109-0.179-6.177-0.535-9.333-1.063
						c-0.777-0.147-1.627-0.269-2.339-0.442l-1.109-0.245l-0.555-0.122l-0.342-0.078l-0.29-0.086
						c-1.542-0.484-3.088-0.931-4.609-1.455c-1.485-0.657-2.999-1.226-4.44-1.966c-0.71-0.399-1.422-0.791-2.119-1.207l-1.047-0.616
						l-0.986-0.722l-1.954-1.451c-0.636-0.501-1.21-1.086-1.813-1.625c-1.246-1.038-2.22-2.359-3.278-3.562
						c-0.924-1.323-1.897-2.598-2.64-4.016c-0.395-0.693-0.771-1.393-1.075-2.13c-0.316-0.729-0.674-1.433-0.919-2.187
						c-0.566-1.472-0.99-2.991-1.305-4.521c-0.336-1.523-0.513-3.078-0.522-4.64l-0.002-0.349L307.665-10.684z"/>
				</g>
			</g>
			<g>
				<g>
					<path style="fill:#173D4F;" d="M-5.336,166.316c5.195-0.317,10.421,0.273,15.513,1.498c5.104,1.201,10.06,3.113,14.747,5.611
						c4.664,2.557,8.903,5.85,12.807,9.514c0.918,0.97,1.827,1.954,2.729,2.945c0.441,0.503,0.929,0.971,1.332,1.504l1.208,1.602
						l2.43,3.251c0.703,1.087,1.412,2.104,2.109,3.249c2.834,4.511,5.197,9.142,7.416,13.892c2.204,4.743,4.151,9.601,5.785,14.564
						c1.659,4.955,2.954,10.026,4.036,15.136c1.019,5.125,1.779,10.305,2.156,15.519c0.4,5.211,0.438,10.449,0.1,15.661
						c-0.357,5.208-1.102,10.403-2.455,15.456c-1.371,5.04-3.284,9.963-5.999,14.465c-0.309,0.579-0.713,1.103-1.066,1.656
						c-0.383,0.557-0.69,1.07-1.136,1.663l-2.396,3.006c-0.795,1.004-1.575,2.014-2.506,2.952l-2.662,2.889
						c-0.863,1-1.861,1.819-2.794,2.727l-2.851,2.66l-2.985,2.505l-1.495,1.253c-0.505,0.409-1.036,0.782-1.553,1.176l-3.114,2.348
						c-1.04,0.782-2.137,1.478-3.205,2.221c-2.127,1.506-4.358,2.836-6.568,4.213c-4.481,2.639-9.055,5.148-13.788,7.333
						c-4.767,2.168-9.5,4.176-14.642,5.792l-3.765,1.184l-0.074-4.087l-0.399-21.875l-0.323-21.874
						c-0.113-7.291-0.136-14.583-0.135-21.875l0.049-10.938l0.118-10.938l0.385-21.876l0.284-10.938l0.321-10.938l0.378-10.939
						l0.456-10.938l0.543-10.938c0.194-3.646,0.415-7.293,0.662-10.939l0.022-0.331L-5.336,166.316z M-4.958,167.065
						c0.25,3.512,0.477,7.025,0.678,10.537l0.584,10.936l0.498,10.937l0.42,10.936l0.363,10.937l0.325,10.937l0.469,21.874
						l0.159,10.938l0.091,10.938c0.029,7.291,0.033,14.583-0.052,21.875l-0.24,21.875l-0.316,21.876l-3.839-2.903
						c2.304-0.615,4.745-1.438,7.112-2.22c2.382-0.805,4.745-1.681,7.094-2.598c4.714-1.799,9.313-3.895,13.839-6.143
						c2.232-1.178,4.497-2.314,6.653-3.63c1.083-0.648,2.201-1.251,3.26-1.938l3.17-2.08c0.523-0.354,1.063-0.689,1.574-1.059
						l1.517-1.136l3.039-2.273c0.986-0.789,1.915-1.645,2.875-2.469c0.934-0.846,1.954-1.625,2.798-2.543
						c1.742-1.808,3.599-3.465,5.153-5.541l2.432-2.978c0.328-0.428,0.697-1.006,1.045-1.501c0.34-0.522,0.732-1.013,1.032-1.562
						c2.575-4.287,4.377-9.039,5.45-13.944c0.299-1.219,0.462-2.473,0.7-3.703c0.192-1.242,0.323-2.495,0.488-3.74
						c0.085-1.257,0.177-2.511,0.239-3.767c0.017-1.261,0.073-2.517,0.059-3.774c-0.031-5.036-0.545-10.061-1.327-15.03
						c-0.808-4.969-1.865-9.893-3.169-14.752c-1.244-4.874-2.782-9.667-4.411-14.42c-1.658-4.745-3.456-9.442-5.465-14.043
						c-1.999-4.591-4.317-9.099-6.734-13.392c-0.589-1.071-1.3-2.19-1.944-3.283l-2.06-2.99l-1.042-1.515
						c-0.348-0.505-0.777-0.943-1.161-1.419c-0.792-0.932-1.577-1.872-2.353-2.824c-3.345-3.581-7.091-6.799-11.219-9.545
						c-4.166-2.676-8.676-4.865-13.406-6.558C4.805,168.769-0.028,167.558-4.958,167.065z"/>
				</g>
				<g>
					<path style="fill:#5CD7C2;" d="M-11.72,192.653c1.482-0.404,2.99-0.596,4.516-0.667c1.524-0.076,3.063-0.031,4.595,0.142
						c3.064,0.338,6.105,1.149,8.983,2.391c2.888,1.224,5.596,2.895,8.053,4.865c2.455,1.977,4.651,4.257,6.59,6.718
						c1.954,2.456,3.569,5.13,5.033,7.862c0.683,1.387,1.408,2.76,1.977,4.189c0.292,0.712,0.612,1.416,0.878,2.136l0.764,2.17
						c1.002,2.898,1.724,5.865,2.313,8.841l0.057,0.279l0.014,0.07l0.029,0.136l0.005,0.034l0.02,0.137l0.078,0.548l0.156,1.096
						l0.311,2.192c0.107,1.569,0.227,3.168,0.253,4.722c-0.028,3.095-0.226,6.177-0.827,9.191c-0.213,1.518-0.68,2.986-1.039,4.465
						c-0.177,0.74-0.47,1.45-0.698,2.174c-0.238,0.722-0.45,1.451-0.765,2.145l-0.855,2.105c-0.311,0.69-0.665,1.36-0.987,2.044
						c-0.164,0.34-0.319,0.685-0.492,1.021l-0.559,0.985c-0.385,0.648-0.72,1.328-1.128,1.963c-1.581,2.572-3.393,4.986-5.327,7.303
						c-1.973,2.283-4.094,4.439-6.347,6.458c-2.232,2.047-4.624,3.919-7.109,5.662c-2.49,1.734-5.068,3.361-7.76,4.792
						c-1.346,0.716-2.714,1.392-4.107,2.032c-1.418,0.634-2.776,1.192-4.364,1.745l-3.76,1.311l-0.175-4.202l-0.512-12.328
						l-0.439-12.33c-0.141-4.109-0.203-8.221-0.241-12.332c-0.023-4.111-0.004-8.224,0.053-12.336
						c0.016-2.056,0.084-4.113,0.123-6.169l0.139-6.169c0.165-4.114,0.261-8.228,0.482-12.342c0.185-4.114,0.433-8.229,0.702-12.345
						l0.477-6.174c0.171-2.059,0.369-4.117,0.592-6.176l0.03-0.278L-11.72,192.653z M-11.271,193.367
						c0.258,1.928,0.499,3.857,0.713,5.786l0.644,6.159c0.38,4.106,0.74,8.213,1.035,12.321c0.332,4.107,0.54,8.216,0.816,12.325
						l0.305,6.164c0.095,2.055,0.218,4.109,0.29,6.164c0.168,4.109,0.299,8.22,0.387,12.33c0.073,4.111,0.123,8.222,0.092,12.334
						l-0.105,12.337l-0.178,12.339l-3.935-2.893c1.223-0.33,2.629-0.801,3.942-1.271c1.34-0.461,2.674-0.962,3.993-1.504
						c2.64-1.08,5.262-2.246,7.795-3.592c2.539-1.335,5.007-2.822,7.346-4.496c2.314-1.699,4.57-3.515,6.554-5.604
						c1.989-2.077,3.826-4.317,5.334-6.768c1.474-2.463,2.779-5.046,3.602-7.794c0.252-0.67,0.4-1.372,0.577-2.064
						c0.15-0.698,0.361-1.381,0.46-2.088c0.205-1.414,0.438-2.815,0.465-4.24c0.025-0.71,0.1-1.413,0.086-2.122l-0.089-2.123
						l-0.046-1.055l-0.131-1.054l-0.257-2.097c-0.226-1.38-0.535-2.701-0.798-4.053l-0.566-2.14l-0.283-1.07l-0.142-0.535
						l-0.036-0.134l-0.009-0.034c0.042,0.191,0.005,0.035,0.012,0.069l-0.021-0.064l-0.084-0.255
						c-0.859-2.736-1.732-5.449-2.72-8.099c-0.504-1.322-0.978-2.652-1.549-3.936c-0.513-1.313-1.122-2.57-1.713-3.84
						c-1.26-2.488-2.588-4.943-4.179-7.203c-1.583-2.262-3.334-4.396-5.305-6.313c-1.963-1.924-4.15-3.615-6.516-5.061
						c-2.363-1.459-4.951-2.563-7.654-3.422C-5.746,194.011-8.492,193.457-11.271,193.367z"/>
				</g>
			</g>
		</g>
	</g>
	<g>
		<g>
			<path style="fill:#E38338;" d="M149.247,70.051c-0.01,0.088-0.057,0.516-0.1,1.266c-0.044,0.843-0.057,2.089,0.111,3.655
				c0.174,1.558,0.546,3.462,1.366,5.425c0.79,1.946,2.088,3.987,3.817,5.091c0.439,0.26,0.875,0.509,1.367,0.661
				c0.228,0.11,0.499,0.138,0.744,0.22c0.337,0.08,0.677,0.16,1.019,0.241c1.335,0.297,2.773,0.62,4.224,0.905
				c2.912,0.561,6.01,1.162,9.239,1.07c1.598-0.079,3.235-0.334,4.743-0.977c1.503-0.639,2.862-1.669,3.808-3.038
				c0.991-1.342,1.503-3,1.729-4.683c0.055-0.422,0.089-0.848,0.089-1.279l0.018-0.642l-0.024-0.644
				c-0.015-0.462-0.049-0.911-0.113-1.311c-0.048-0.412-0.104-0.824-0.194-1.251c-0.633-3.382-2.091-6.503-3.749-9.377
				c-1.692-2.868-3.818-5.422-6.129-7.511c-2.303-2.047-4.847-3.782-7.104-4.448c-0.549-0.149-1.077-0.27-1.5-0.254
				c-0.115-0.013-0.215-0.005-0.307,0.011l-0.143,0.011l-0.037,0.002l-0.018,0.001c0.061-0.018-0.161,0.041,0.131-0.039
				l-0.135,0.037l-0.54,0.141c-0.066,0.034-0.135,0.06-0.208,0.08c-0.813,0.31-1.846,1.033-2.722,1.823
				c-1.804,1.629-3.365,3.563-4.621,5.337c-1.267,1.785-2.22,3.468-2.911,4.891c-0.691,1.425-1.15,2.584-1.438,3.381
				C149.417,69.554,149.276,69.965,149.247,70.051z M148.761,69.928c0,0,0.54-1.746,1.484-4.802
				c0.479-1.531,1.035-3.405,1.769-5.569c0.767-2.152,1.678-4.609,3.436-7.115c0.93-1.23,2.006-2.5,3.841-3.486
				c0.262-0.129,0.53-0.254,0.802-0.371l0.525-0.189l0.132-0.046c0.314-0.088,0.116-0.031,0.199-0.053l0.051-0.011l0.102-0.021
				l0.412-0.082c0.279-0.059,0.552-0.097,0.817-0.106c1.093-0.096,2.106,0.035,3.068,0.254c1.912,0.46,3.607,1.277,5.153,2.281
				c1.547,1.005,2.965,2.188,4.258,3.511c2.597,2.629,4.786,5.746,6.441,9.196c1.678,3.438,2.573,7.341,2.567,11.207
				c0.013,0.477-0.008,0.972-0.041,1.468c-0.017,0.507-0.07,0.965-0.129,1.41l-0.078,0.715l-0.122,0.711
				c-0.068,0.473-0.18,0.941-0.302,1.406c-0.436,1.863-1.197,3.673-2.333,5.219c-1.117,1.566-2.623,2.794-4.242,3.732
				c-1.629,0.931-3.379,1.573-5.138,2.029c-3.524,0.876-7.075,1.042-10.318,0.639c-1.632-0.201-3.168-0.504-4.679-0.93
				c-0.386-0.111-0.676-0.187-1.089-0.325c-0.43-0.171-0.867-0.296-1.268-0.519c-0.825-0.385-1.544-0.936-2.177-1.508
				c-1.253-1.186-1.988-2.603-2.499-3.9c-0.484-1.324-0.713-2.586-0.856-3.75c-0.255-2.337-0.178-4.307-0.134-5.919
				c0.056-1.611,0.151-2.863,0.216-3.719c0.061-0.854,0.124-1.313,0.124-1.313l0.003-0.024L148.761,69.928z"/>
		</g>
		<g>
			<path style="fill:#5499BA;" d="M156.987,236.92c0.015,0.04,0.144,0.375,0.417,0.978c0.294,0.636,0.773,1.555,1.517,2.632
				c0.745,1.07,1.78,2.305,3.164,3.422c1.359,1.124,3.051,2.16,4.82,2.679c1.767,0.568,3.538,0.559,5.577-0.006
				c2.021-0.602,4.32-1.77,6.514-3.408c0.569-0.384,1.063-0.876,1.608-1.321l0.38-0.321l0.384-0.386l0.76-0.786
				c0.986-1.05,1.777-2.194,2.491-3.457c0.639-1.274,1.155-2.63,1.338-4.016c0.16-1.386,0.028-2.764-0.442-3.979
				c-0.931-2.453-3.002-4.131-5.237-5.421c-2.282-1.261-4.863-2.032-7.361-2.36c-2.476-0.304-4.973-0.286-6.772,0.248
				c-0.181,0.076-0.462,0.157-0.574,0.196c-0.291,0.134-0.58,0.267-0.867,0.398c-0.628,0.27-0.994,0.514-1.464,0.738
				c-0.449,0.227-0.889,0.527-1.338,0.771c-0.398,0.292-0.845,0.543-1.213,0.844c-1.528,1.148-2.763,2.533-3.428,4.1
				c-0.705,1.548-0.902,3.138-0.899,4.425c0.041,1.294,0.208,2.314,0.37,2.995C156.889,236.526,156.977,236.881,156.987,236.92z
				 M156.511,237.072c0,0-0.107-0.366-0.309-1.053c-0.2-0.688-0.469-1.702-0.754-3.034c-0.239-1.337-0.515-3.007-0.364-5.051
				c0.127-2.034,0.947-4.435,2.58-6.532c0.397-0.535,0.875-0.991,1.348-1.492c0.516-0.432,1-0.908,1.6-1.309
				c0.578-0.403,1.245-0.855,1.759-1.126c0.274-0.156,0.551-0.314,0.829-0.472c0.462-0.243,0.794-0.371,1.211-0.546
				c1.577-0.586,3.152-0.809,4.719-0.852c1.566-0.035,3.128,0.119,4.67,0.441c3.08,0.626,6.126,1.847,8.876,3.767
				c1.371,0.962,2.623,2.186,3.614,3.631c0.973,1.456,1.659,3.146,1.889,4.871c0.234,1.727,0.039,3.435-0.396,4.994l-0.355,1.155
				c-0.135,0.376-0.307,0.733-0.459,1.098c-0.271,0.746-0.699,1.398-1.02,2.104c-0.767,1.317-1.608,2.639-2.456,3.856
				c-0.447,0.604-0.781,1.175-1.284,1.821c-0.453,0.59-0.874,1.201-1.351,1.773c-1.847,2.302-4.034,4.501-6.922,5.651
				c-2.854,1.186-6.351,0.935-8.672-0.498c-2.375-1.366-3.778-3.276-4.805-4.926c-1.022-1.675-1.697-3.18-2.271-4.396
				c-0.566-1.22-0.976-2.183-1.257-2.841c-0.282-0.654-0.412-1.021-0.412-1.021l-0.004-0.012L156.511,237.072z"/>
		</g>
		<g>
			<path style="fill:#173D4F;" d="M406.295,98.862c0,0-0.527-0.094-1.529-0.092c-0.981,0.003-2.461,0.107-4.031,0.801
				c-1.559,0.695-3.156,1.961-4.201,4.073c-0.535,1.038-0.978,2.229-1.314,3.552c-0.136,0.672-0.34,1.356-0.444,2.051
				c-0.119,0.764-0.287,1.6-0.374,2.355c-0.399,3.003-0.581,6.414,0.292,9.421c0.454,1.506,1.138,2.973,2.241,4.438
				c0.537,0.731,1.147,1.487,1.792,2.252c0.335,0.399,0.671,0.801,1.009,1.204c0.317,0.401,0.637,0.803,0.958,1.207
				c1.303,1.698,2.561,3.506,3.572,5.448c1.015,1.95,1.831,4.012,2.45,6.138c0.142,0.508,0.298,1.124,0.433,1.546l0.256,0.773
				c0.084,0.262,0.204,0.438,0.309,0.658c0.182,0.419,0.515,0.834,0.776,1.251c0.327,0.38,0.621,0.79,0.992,1.126
				c1.455,1.366,3.307,2.285,5.17,2.337c1.861,0.071,3.642-0.596,5.215-1.642l1.155-0.853c0.382-0.282,0.718-0.666,1.077-0.987
				c0.744-0.611,1.356-1.439,2.024-2.154c2.49-2.895,3.485-6.507,3.417-10.135c-0.083-3.634-1.017-7.233-2.233-10.54
				c-0.6-1.656-1.315-3.246-2.049-4.71l-0.271-0.522l-0.028-0.053c-0.058-0.089,0.069,0.101,0.047,0.067l-0.022-0.035l-0.081-0.128
				l-0.17-0.266c-0.233-0.356-0.465-0.708-0.694-1.058c-0.473-0.694-0.936-1.376-1.391-2.043c-1.812-2.683-3.573-5.071-5.174-7.148
				c-1.622-2.054-3.093-3.8-4.414-5.105c-1.311-1.322-2.467-2.196-3.321-2.659c-0.423-0.233-0.772-0.388-1.01-0.447l-0.376-0.111
				L406.295,98.862z M406.429,98.376c0.06-0.001,0.19-0.001,0.392-0.001c0.289-0.01,0.711,0.045,1.249,0.165
				c1.073,0.252,2.571,0.884,4.242,1.98c1.689,1.079,3.577,2.584,5.577,4.458c2.015,1.863,4.116,4.114,6.301,6.657
				c0.531,0.649,1.073,1.312,1.626,1.987c0.272,0.344,0.547,0.692,0.823,1.043l0.208,0.269l0.108,0.141l0.024,0.033l0.092,0.136
				l0.058,0.088l0.398,0.621c1.006,1.626,1.881,3.35,2.665,5.2c1.542,3.684,2.69,7.921,2.544,12.536
				c-0.091,2.293-0.463,4.679-1.383,6.937c-0.422,1.138-1.019,2.217-1.664,3.256c-0.336,0.516-0.754,1.078-1.119,1.554l-0.528,0.611
				l-0.268,0.304l-0.033,0.038c0.003-0.003-0.137,0.157-0.097,0.108l-0.079,0.076l-0.158,0.153
				c-1.644,1.654-3.484,3.212-5.722,4.309c-2.238,1.053-4.891,1.593-7.406,1.08c-0.617-0.138-1.225-0.338-1.81-0.545
				c-0.554-0.291-1.147-0.501-1.642-0.867c-0.516-0.333-1.023-0.668-1.457-1.089c-0.472-0.377-0.862-0.833-1.254-1.278
				c-0.404-0.433-0.722-0.94-1.064-1.415c-0.283-0.526-0.605-0.994-0.823-1.59c-0.105-0.281-0.264-0.579-0.333-0.837l-0.226-0.782
				l-0.409-1.587c-0.565-2.025-1.395-3.948-2.517-5.654c-1.121-1.722-2.529-3.164-3.979-4.513c-0.388-0.34-0.774-0.68-1.159-1.017
				c-0.382-0.318-0.763-0.635-1.141-0.951c-0.782-0.663-1.589-1.322-2.343-2.092c-1.53-1.489-2.87-3.415-3.596-5.489
				c-0.752-2.071-0.96-4.171-0.93-6.108c0.003-1.954,0.307-3.736,0.629-5.493c0.159-0.872,0.38-1.601,0.561-2.382
				c0.192-0.853,0.509-1.623,0.755-2.4c0.551-1.538,1.295-2.954,2.169-4.186c1.725-2.517,4.333-3.922,6.422-4.299
				c2.125-0.422,3.754-0.052,4.784,0.237c0.52,0.161,0.901,0.312,1.16,0.424C406.273,98.293,406.385,98.352,406.429,98.376z"/>
		</g>
		<g>
			<path style="fill:#5CD7C2;" d="M240.74,458.569c0,0-0.167,0.561-0.351,1.662c-0.175,1.097-0.339,2.743-0.133,4.801
				c0.108,1.026,0.325,2.15,0.722,3.309c0.378,1.16,0.946,2.353,1.738,3.466c1.565,2.252,4.033,4.059,7.089,5.153
				c0.761,0.283,1.553,0.544,2.388,0.747l0.622,0.168l0.586,0.112c0.468,0.096,0.94,0.192,1.417,0.289
				c0.996,0.245,1.829,0.302,2.701,0.406c0.861,0.165,1.785,0.115,2.712,0.167c3.696,0.096,7.519-0.989,10.73-3.722
				c3.101-2.829,5.259-7.081,6.22-11.611c1.031-4.561,1.044-9.323,0.633-14.103c-0.385-4.692-1.163-9.391-2.462-13.612
				c-0.671-2.094-1.492-4.11-2.652-5.684c-1.146-1.574-2.502-2.762-4.034-3.192c-0.768-0.215-1.553-0.339-2.389-0.289l-0.622,0.022
				l-0.039,0.001c-0.045,0.004,0.27-0.037,0.111-0.016l-0.101,0.017l-0.204,0.034l-0.406,0.067
				c-0.248,0.048-0.592,0.083-0.757,0.141c-0.144,0.06-0.289,0.104-0.436,0.145c-0.151,0.022-0.292,0.103-0.434,0.174
				c-0.13,0.077-0.317,0.109-0.411,0.208c-0.109,0.086-0.222,0.163-0.341,0.233c-0.092,0.101-0.177,0.203-0.281,0.29
				c-0.366,0.406-0.699,1.03-0.985,1.83c-0.58,1.644-0.99,3.765-1.829,5.807c-0.39,1.022-0.931,2.022-1.54,2.938l-0.223,0.347
				c0.048-0.071-0.097,0.146-0.092,0.135l-0.028,0.034l-0.056,0.066l-0.113,0.135l-0.447,0.532l-0.225,0.267l-0.286,0.301
				l-0.571,0.588c-1.468,1.445-2.94,2.412-4.288,3.388c-1.366,0.941-2.622,1.805-3.734,2.701c-2.241,1.762-3.897,3.661-4.932,5.445
				c-1.035,1.783-1.574,3.344-1.86,4.416c-0.261,1.084-0.4,1.662-0.4,1.662L240.74,458.569z M240.249,458.479l0.005-0.023
				c0,0,0.127-0.595,0.365-1.709c0.258-1.108,0.709-2.729,1.573-4.702c0.439-0.983,0.988-2.05,1.671-3.172
				c0.364-0.542,0.718-1.138,1.155-1.693c0.41-0.584,0.857-1.169,1.345-1.749c0.963-1.172,2.057-2.364,3.182-3.567
				c1.127-1.184,2.295-2.464,3.243-3.7l0.316-0.442l0.16-0.22l0.178-0.291l0.359-0.595l0.091-0.15l0.045-0.075l0.023-0.037
				c0.022-0.034-0.109,0.157-0.046,0.061l0.126-0.263c0.165-0.353,0.353-0.689,0.48-1.078c0.146-0.371,0.296-0.75,0.411-1.162
				c0.526-1.606,0.791-3.475,1.453-5.772c0.374-1.152,0.916-2.472,1.927-3.686c0.266-0.292,0.543-0.58,0.832-0.852
				c0.314-0.239,0.635-0.475,0.962-0.701c0.325-0.244,0.671-0.363,1.013-0.542c0.342-0.167,0.687-0.329,1.068-0.428
				c0.373-0.112,0.75-0.223,1.129-0.317c0.361-0.085,0.565-0.092,0.857-0.142l0.407-0.06l0.204-0.03l0.102-0.015
				c-0.124,0.016,0.225-0.03,0.214-0.025l0.064-0.002l1.034-0.028c1.377-0.056,2.825,0.238,4.196,0.714
				c2.798,0.983,4.942,3.152,6.348,5.406c1.448,2.283,2.275,4.738,2.873,7.188c0.638,2.455,0.859,4.939,1.038,7.409
				c0.016,1.237,0.052,2.469,0.039,3.704c-0.046,1.235-0.062,2.484-0.137,3.695c-0.296,4.826-0.816,9.739-1.884,14.427
				c-1.134,4.666-2.746,9.27-5.78,13.11c-0.4,0.455-0.832,0.888-1.25,1.332l-0.639,0.658l-0.723,0.563
				c-0.488,0.366-0.961,0.764-1.47,1.1c-0.531,0.296-1.065,0.593-1.606,0.873c-0.529,0.315-1.101,0.5-1.669,0.696
				c-0.569,0.188-1.132,0.42-1.707,0.561c-0.581,0.1-1.16,0.199-1.734,0.299l-0.863,0.143c-0.286,0.028-0.57,0.028-0.854,0.043
				c-1.138,0.036-2.258,0.096-3.385-0.08c-0.56-0.069-1.116-0.138-1.667-0.206l-0.412-0.054l-0.358-0.088l-0.711-0.174
				c-0.472-0.118-0.939-0.235-1.403-0.351l-0.346-0.092l-0.172-0.046l-0.043-0.012c0.009,0.003-0.225-0.058-0.148-0.04l-0.092-0.031
				l-0.727-0.253c-0.484-0.158-0.954-0.348-1.414-0.561c-0.46-0.207-0.921-0.395-1.353-0.651c-1.761-0.924-3.295-2.141-4.539-3.471
				c-1.23-1.353-2.14-2.834-2.764-4.285c-1.241-2.929-1.431-5.624-1.426-7.762c0.016-2.15,0.267-3.808,0.465-4.93
				C240.044,459.199,240.204,458.635,240.249,458.479z"/>
		</g>
		<g>
			<path style="fill:#E38338;" d="M409.577,369.276c0.021,0.069,0.16,0.529,0.48,1.336c0.355,0.867,0.943,2.129,1.935,3.568
				c0.99,1.427,2.422,3.051,4.395,4.304c1.945,1.285,4.394,2.084,6.998,2.076c1.305,0.026,2.666-0.14,4.076-0.47
				c1.407-0.321,2.871-0.775,4.361-1.395c1.496-0.583,3.029-1.318,4.594-2.112c0.078-0.038,0.24-0.125,0.25-0.122l0.3-0.171
				l0.607-0.339c0.403-0.227,0.808-0.454,1.214-0.684c0.728-0.485,1.512-0.904,2.246-1.462c1.518-1.044,2.919-2.298,4.218-3.689
				c1.275-1.411,2.358-3.024,3.231-4.754c1.771-3.453,2.484-7.483,2.065-11.291c-0.206-1.901-0.67-3.752-1.376-5.418
				c-0.346-0.83-0.741-1.63-1.223-2.309c-0.458-0.684-0.971-1.319-1.495-1.685c-0.528-0.385-0.957-0.486-1.129-0.407
				c-0.025,0.014-0.049,0.022-0.074,0.022h-0.02c0.068-0.02-0.167,0.045,0.15-0.046l-0.043,0.016l-0.174,0.063l-0.695,0.252
				l-0.347,0.126l-0.223,0.132l-0.442,0.246c-1.337,0.765-2.777,1.921-4.105,3.12c-1.381,1.272-2.739,2.524-4.069,3.75
				c-1.412,1.25-2.866,2.484-4.675,3.535c-0.893,0.528-1.957,0.97-3.159,1.244c-0.307,0.061-0.658,0.075-0.984,0.102l-0.495,0.025
				l-0.123,0.004l-0.062,0.002c-0.034,0.001,0.059,0.003,0.002,0.001l-0.156-0.007c-0.401-0.009-0.866-0.058-1.198-0.053
				c-1.422-0.037-2.945-0.019-4.307,0.13c-0.704,0.035-1.354,0.181-2.023,0.255c-0.629,0.153-1.295,0.238-1.868,0.457
				c-0.301,0.092-0.598,0.183-0.891,0.272c-0.276,0.121-0.548,0.241-0.816,0.359c-0.572,0.206-1.008,0.556-1.499,0.84
				c-1.886,1.23-2.912,3.13-3.298,4.776c-0.27,0.817-0.291,1.595-0.336,2.267c-0.077,0.673-0.012,1.249,0.04,1.714
				C409.521,368.725,409.57,369.211,409.577,369.276z M409.086,369.378c0,0-0.067-0.51-0.193-1.465
				c-0.057-0.479-0.186-1.065-0.153-1.772c0.001-0.705-0.084-1.521,0.09-2.435c0.182-1.807,0.839-4.166,2.683-6.252
				c1.811-2.067,4.589-3.785,7.779-4.688c1.614-0.479,3.257-0.774,5.11-0.891c0.486-0.039,0.849-0.044,1.28-0.056l0.156-0.003
				c-0.03-0.001,0.089,0,0.08-0.002l0.017-0.006l0.032-0.01l0.131-0.032c0.09-0.025,0.165-0.01,0.27-0.04
				c0.237-0.122,0.441-0.132,0.718-0.297c0.275-0.169,0.533-0.255,0.838-0.479c2.398-1.553,4.986-4.273,8.067-6.731
				c1.572-1.246,3.191-2.5,5.342-3.52l0.887-0.381l0.443-0.181l0.354-0.102l0.711-0.203l0.178-0.052l0.044-0.013
				c0.349-0.095,0.144-0.033,0.242-0.058l0.165-0.024c0.22-0.03,0.44-0.055,0.661-0.072c0.439-0.043,0.871,0.043,1.301,0.093
				c0.404,0.095,0.798,0.227,1.172,0.373c0.335,0.175,0.69,0.348,0.991,0.552c0.28,0.212,0.573,0.426,0.828,0.652
				c1.967,1.857,2.84,4.049,3.421,6.208c0.525,2.182,0.677,4.379,0.553,6.53c-0.297,4.305-1.568,8.384-3.453,12.022
				c-1.896,3.636-4.309,6.917-7.058,9.771c-0.659,0.737-1.434,1.391-2.152,2.084c-0.358,0.305-0.716,0.607-1.071,0.91l-0.531,0.447
				l-0.267,0.22l-0.333,0.241c-1.543,1.129-3.107,2.212-4.82,2.993c-1.679,0.826-3.457,1.434-5.263,1.753
				c-1.794,0.357-3.637,0.368-5.353,0.069c-1.722-0.285-3.295-0.925-4.642-1.692c-1.345-0.792-2.433-1.765-3.341-2.725
				c-1.805-1.953-2.896-3.906-3.734-5.503c-0.828-1.607-1.347-2.917-1.692-3.813c-0.342-0.895-0.481-1.398-0.481-1.398l-0.005-0.018
				L409.086,369.378z"/>
		</g>
		<g>
			<path style="fill:#E38338;" d="M602.253,299.836c0.006,0.079,0.035,0.449,0.118,1.09c0.098,0.724,0.289,1.784,0.674,3.093
				c0.39,1.305,1.006,2.861,1.954,4.469c0.931,1.601,2.178,3.285,3.677,4.585c0.744,0.653,1.551,1.182,2.399,1.574
				c0.425,0.198,0.873,0.344,1.338,0.469l0.044,0.012l0.021,0.007c0.048,0.01-0.348-0.061-0.165-0.028l0.122,0.016l0.244,0.039
				l0.492,0.078l0.494,0.078c0.165,0.024,0.349,0.07,0.44,0.051c0.227-0.007,0.454-0.008,0.688,0.005
				c0.118,0.006,0.232,0.025,0.359,0.026l0.419-0.05c0.281-0.029,0.569-0.043,0.863-0.063c0.29-0.042,0.579-0.128,0.876-0.188
				c1.201-0.225,2.407-0.749,3.618-1.379c2.358-1.362,4.479-3.6,5.629-6.336c1.126-2.742,1.304-5.865,0.199-8.546
				c-1.086-2.978-2.099-5.998-3.14-8.687c-0.261-0.686-0.567-1.304-0.85-1.94c-0.331-0.582-0.624-1.199-1-1.693
				c-0.714-1.04-1.487-1.887-2.392-2.392c-0.899-0.513-1.84-0.887-2.95-0.993c-0.521-0.123-1.108-0.1-1.676-0.116l-0.426-0.021
				l-0.026-0.001c0.294-0.024,0.063-0.006,0.12-0.011l-0.064,0.006l-0.128,0.01l-0.257,0.021l-0.498,0.043
				c-0.085,0.023-0.17,0.044-0.255,0.06c-1.664,0.267-3.347,1.546-4.725,3.077c-1.398,1.54-2.579,3.297-3.463,4.946
				c-0.907,1.649-1.508,3.211-1.905,4.516c-0.393,1.309-0.606,2.366-0.722,3.088C602.315,299.39,602.263,299.761,602.253,299.836z
				 M601.752,299.811c0,0,0.039-0.396,0.111-1.137c0.084-0.738,0.207-1.822,0.364-3.201c0.171-1.384,0.35-3.077,0.684-5.052
				c0.348-1.969,0.854-4.238,2.089-6.615c0.633-1.174,1.467-2.381,2.65-3.435c0.594-0.525,1.262-1.013,2.012-1.421
				c0.384-0.191,0.757-0.41,1.175-0.554c0.407-0.158,0.811-0.321,1.326-0.423l0.737-0.16l0.518-0.069l0.255-0.032l0.128-0.017
				l0.064-0.008l0.184-0.015l0.038-0.001l0.61-0.009c0.818-0.001,1.638-0.014,2.514,0.15c1.711,0.193,3.551,0.903,5.091,2.015
				c1.584,1.095,2.771,2.621,3.614,4.166c0.873,1.554,1.454,3.153,1.892,4.74c0.936,3.18,1.176,6.334,1.61,9.452
				c0.062,0.369,0.081,0.838,0.119,1.266c0.019,0.436,0.096,0.864,0.06,1.294c-0.05,0.858-0.047,1.708-0.246,2.527
				c-0.206,1.667-0.828,3.202-1.401,4.705c-1.359,2.922-3.116,5.603-5.408,7.856c-1.188,1.068-2.468,2.096-3.967,2.763
				c-0.374,0.163-0.74,0.349-1.125,0.488c-0.398,0.114-0.795,0.228-1.188,0.341l-0.599,0.151c-0.214,0.035-0.444,0.051-0.667,0.074
				c-0.45,0.039-0.901,0.063-1.35,0.081c-0.247,0.017-0.396-0.002-0.564-0.021l-0.499-0.054l-0.494-0.053l-0.246-0.026l-0.123-0.016
				l-0.225-0.041l-0.038-0.01l-0.075-0.021c-0.804-0.202-1.592-0.462-2.293-0.854c-1.43-0.739-2.549-1.802-3.382-2.895
				c-1.646-2.237-2.282-4.538-2.712-6.498c-0.408-1.977-0.6-3.672-0.778-5.056c-0.156-1.38-0.278-2.465-0.362-3.204
				c-0.082-0.735-0.102-1.137-0.102-1.137l-0.002-0.023L601.752,299.811z"/>
		</g>
		<g>
			<defs>
				<rect id="SVGID_00000013896911494590864470000010807454495783058055_" width="750" height="500"/>
			</defs>
			<clipPath id="SVGID_00000041280843433844231840000011570431000068279943_">
				<use xlink:href="#SVGID_00000013896911494590864470000010807454495783058055_"  style="overflow:visible;"/>
			</clipPath>
			<g style="clip-path:url(#SVGID_00000041280843433844231840000011570431000068279943_);">
				<path d="M-2.53,441.054c0,0,0.265-0.34,0.815-0.912c0.563-0.561,1.398-1.385,2.659-2.246c0.62-0.449,1.369-0.873,2.272-1.261
					c0.45-0.195,0.953-0.366,1.516-0.498c0.294-0.048,0.569-0.129,0.903-0.131c0.304-0.017,0.713-0.027,0.922-0.019
					c1.002,0.021,2.274,0.092,3.577,0.496c1.317,0.384,2.625,1.122,3.736,2.053c2.217,1.893,3.868,4.361,5.075,7.06
					c0.627,1.356,1.095,2.763,1.519,4.268c0.38,1.444,0.794,2.865,1.086,4.486c0.355,1.563,0.598,3.176,0.753,4.832
					c0.151,1.643,0.044,3.488-0.697,5.114c-0.181,0.405-0.376,0.8-0.592,1.148l-0.314,0.545l-0.357,0.543
					c-0.221,0.339-0.524,0.71-0.79,1.054l-0.834,0.961c-1.114,1.28-2.344,2.458-3.65,3.585c-1.299,1.138-2.755,2.117-4.3,2.997
					c-1.576,0.823-3.28,1.485-5.101,1.814c-0.443,0.122-0.913,0.139-1.375,0.185c-0.464,0.031-0.926,0.1-1.393,0.093l-1.403-0.067
					c-0.234-0.016-0.469-0.021-0.701-0.046l-0.689-0.134l-1.376-0.281c-0.455-0.104-0.875-0.3-1.313-0.451l-0.647-0.246
					l-0.323-0.124l-0.161-0.063l-0.041-0.016c0.024,0.017-0.362-0.197-0.213-0.115l-0.063-0.035l-0.506-0.282
					c-0.175-0.103-0.305-0.151-0.585-0.37c-1.041-0.76-1.755-1.5-2.311-2.342c-0.291-0.417-0.553-0.84-0.75-1.271l-0.318-0.646
					c-0.087-0.214-0.16-0.431-0.238-0.646c-0.624-1.726-0.847-3.392-0.934-4.96c-0.125-3.137,0.343-5.921,0.86-8.427
					c0.576-2.496,1.256-4.709,1.971-6.627c0.694-1.922,1.417-3.547,2.045-4.866c0.627-1.319,1.179-2.328,1.566-3.011l0.634-1.059
					L-2.53,441.054z M-2.154,441.417c-0.057,0.343-0.313,1.896-0.724,4.392c-0.232,1.413-0.495,3.125-0.783,5.07
					c-0.26,1.95-0.573,4.134-0.741,6.492c-0.205,2.345-0.274,4.888-0.029,7.374c0.135,1.232,0.365,2.446,0.744,3.503
					c0.088,0.274,0.192,0.524,0.312,0.756c0.1,0.256,0.232,0.469,0.369,0.675c0.253,0.432,0.613,0.797,0.771,0.989
					c-0.002,0.051,0.214,0.176,0.367,0.276l0.485,0.316l0.061,0.039c0.169,0.095-0.196-0.105-0.149-0.081l0.027,0.012l0.108,0.047
					l0.216,0.096l0.432,0.196c0.291,0.122,0.572,0.291,0.875,0.388l0.921,0.269l0.464,0.143c0.159,0.03,0.321,0.044,0.483,0.068
					l0.976,0.14c0.33,0.037,0.668,0.005,1.005,0.016c0.338-0.009,0.678,0.033,1.023-0.029c2.739-0.27,5.703-1.161,8.449-2.68
					c1.373-0.75,2.706-1.63,3.898-2.658l0.855-0.804c0.258-0.278,0.506-0.508,0.763-0.823c0.117-0.144,0.274-0.354,0.344-0.451
					l0.318-0.491c0.233-0.326,0.39-0.658,0.545-0.986c0.614-1.313,0.66-2.785,0.323-4.252c-0.331-1.459-0.876-2.88-1.523-4.217
					c-0.575-1.326-1.37-2.677-2.036-3.994c-0.161-0.309-0.349-0.712-0.484-0.937c-0.172-0.309-0.344-0.615-0.514-0.92
					c-0.318-0.621-0.657-1.209-0.98-1.792c-0.634-1.176-1.289-2.254-1.921-3.271c-0.661-0.986-1.339-1.865-2.051-2.575
					c-1.419-1.452-2.925-2.018-4.865-2.393c-1.36-0.38-2.997,0.07-4.284,0.472c-1.3,0.426-2.334,0.872-3.035,1.176
					C-1.679,441.205-2.021,441.357-2.154,441.417z"/>
			</g>
		</g>
	</g>
	<g>
		<g>
			<path style="fill:#173D4F;" d="M551.916,341.341c0,0-8.379,0.351-6.05,13.501c2.327,13.15,17.226,8.495,15.943-0.932
				C560.53,344.483,558.55,340.991,551.916,341.341z"/>
			<path style="fill:#5499BA;" d="M585.75,360.334c0,0-6.333,0.417-4.083,10.834c2.25,10.416,12.249,8.082,11.416-1.334
				C592.25,360.417,587.667,360.167,585.75,360.334z"/>
		</g>
		<g>
			<path style="fill:#5499BA;" d="M538.575,491.583c0,0,8.733,0.139,6.481-13.615c-2.25-13.753-10.471-9.171-10.471-9.171
				s-8.324,2.835-4.908,14.198C529.678,482.995,531.967,491.716,538.575,491.583z"/>
			<path style="fill:#173D4F;" d="M330.71,422.39c0,0,7.824,3.883,11.709-9.502c3.885-13.383-5.506-12.783-5.506-12.783
				s-8.734-1.022-10.54,10.705C326.373,410.81,324.687,419.667,330.71,422.39z"/>
			<path style="fill:#E38338;" d="M334.357,438.341c0,0-8.1,0.533-5.222,13.857c2.878,13.321,15.666,10.336,14.601-1.706
				C342.67,438.447,336.809,438.128,334.357,438.341z"/>
		</g>
		<g>
			<path style="fill:#E38338;" d="M86.666,401.167c0,0-8.668-1.083-7.918,12.834s9.418,10.251,9.418,10.251
				s8.582-1.918,6.416-13.585C94.582,410.667,93.25,401.75,86.666,401.167z"/>
			<path style="fill:#173D4F;" d="M27.965,368.344c0,0-8.48,0.558-5.467,14.508c3.013,13.947,16.402,10.822,15.287-1.786
				C36.669,368.454,30.532,368.119,27.965,368.344z"/>
		</g>
		<g>
			<path style="fill:#E38338;" d="M143,262.833c0,0-8.668-1.083-7.918,12.834c0.75,13.916,9.418,10.25,9.418,10.25
				s8.582-1.918,6.416-13.584C150.916,272.333,149.584,263.416,143,262.833z"/>
			<path style="fill:#E38338;" d="M83.666,218.501c0,0-8.668-1.083-7.918,12.834c0.75,13.917,9.418,10.251,9.418,10.251
				s8.582-1.918,6.416-13.585C91.582,228.001,90.25,219.084,83.666,218.501z"/>
			<path style="fill:#5CD7C2;" d="M102.727,201.339c0,0-7.7,0.321-5.561,12.406c2.139,12.084,15.829,7.807,14.652-0.856
				C110.642,204.226,108.823,201.018,102.727,201.339z"/>
		</g>
		<g>
			<path style="fill:#E69C51;" d="M531.333,91.834c0,0-8.668-1.083-7.918,12.834c0.75,13.916,9.418,10.25,9.418,10.25
				s8.582-1.918,6.416-13.584C539.249,101.334,537.917,92.417,531.333,91.834z"/>
			<path style="fill:#EBDD3F;" d="M553.141,34.439c0,0-8.01-0.84-7.435,12.671c0.575,13.51,13.581,12.74,14.564,0.786
				C561.252,35.939,555.573,34.642,553.141,34.439z"/>
			<path style="fill:#5CD7C2;" d="M579.75,79.667c0,0-6.333,0.417-4.083,10.834c2.25,10.416,12.249,8.082,11.416-1.334
				C586.25,79.75,581.667,79.5,579.75,79.667z"/>
		</g>
		<g>
			<path style="fill:#EBDD3F;" d="M232.696,46.384c0,0,7.75,0.123,5.752-12.082c-1.997-12.205-9.292-8.138-9.292-8.138
				s-7.387,2.516-4.356,12.599C224.801,38.763,226.832,46.502,232.696,46.384z"/>
			<path style="fill:#173D4F;" d="M402.34,29.339c0,0-8.063,0.336-5.823,12.993c2.24,12.655,16.577,8.176,15.345-0.896
				C410.629,32.363,408.725,29.003,402.34,29.339z"/>
			<path style="fill:#5CD7C2;" d="M718.574,154.916c0,0,8.734,0.139,6.482-13.615c-2.251-13.753-10.471-9.171-10.471-9.171
				s-8.324,2.835-4.908,14.198C709.678,146.328,711.967,155.049,718.574,154.916z"/>
		</g>
		<g>
			<path style="fill:#5CD7C2;" d="M696.082,290.667c0,0-6,0.251-4.332,9.667c1.666,9.416,12.334,6.083,11.416-0.667
				C702.25,292.917,700.832,290.417,696.082,290.667z"/>
			<path style="fill:#EBDD3F;" d="M632.416,219.001c0,0-6.332,0.417-4.082,10.834c2.25,10.416,12.248,8.082,11.416-1.334
				C638.916,219.084,634.334,218.834,632.416,219.001z"/>
		</g>
	</g>
</g>
</svg>
